<?xml version="1.0" encoding="utf-8"?>
<!-- Generator: Adobe Illustrator 27.5.0, SVG Export Plug-In . SVG Version: 6.00 Build 0)  -->
<svg version="1.1" xmlns="http://www.w3.org/2000/svg" xmlns:xlink="http://www.w3.org/1999/xlink" x="0px" y="0px"
	 viewBox="0 0 500 500" style="enable-background:new 0 0 500 500;" xml:space="preserve">
<g id="BACKGROUND">
	<rect style="fill:#FFFFFF;" width="500" height="500"/>
</g>
<g id="OBJECTS">
	<path style="fill:#E7F1F7;" d="M362.644,55.016c-61.769-21.149-128.731,9.236-154.101,68.236
		c-62.168-16.116-127.219,18.169-148.368,79.938c-22.193,64.819,12.362,135.356,77.181,157.549
		c61.769,21.149,128.731-9.236,154.101-68.236c62.168,16.116,127.219-18.169,148.368-79.939
		C462.017,147.746,427.463,77.209,362.644,55.016z"/>
	<g>
		<g>
			<rect x="41.318" y="54.666" style="fill:#D7E7FF;" width="131.581" height="85.026"/>
		</g>
		<g>
			<path style="fill:#82AADB;" d="M173.399,140.192H40.818V54.166h132.581V140.192z M41.818,139.192h130.581V55.166H41.818V139.192z
				"/>
		</g>
		<g>
			<g>
				<polygon style="fill:#EF3F1D;" points="50.971,126.62 50.264,125.913 84.196,91.981 106.134,113.919 156.896,63.156 
					157.603,63.863 106.134,115.333 84.196,93.395 				"/>
			</g>
			<g>
				<polygon style="fill:#EF3F1D;" points="159.164,65.764 154.996,61.596 160.941,59.818 				"/>
			</g>
		</g>
	</g>
	<g>
		<polygon style="fill:#AFB600;" points="78.807,222.149 73.883,222.149 73.883,231.077 64.955,231.077 64.955,236.001 
			73.883,236.001 73.883,244.929 78.807,244.929 78.807,236.001 87.734,236.001 87.734,231.077 78.807,231.077 		"/>
		<polygon style="fill:#AFB600;" points="66.475,185.761 71.399,185.761 71.399,176.834 80.327,176.834 80.327,171.909 
			71.399,171.909 71.399,162.982 66.475,162.982 66.475,171.909 57.547,171.909 57.547,176.834 66.475,176.834 		"/>
		<polygon style="fill:#AFB600;" points="101.114,197.982 101.114,189.054 96.189,189.054 96.189,197.982 87.262,197.982 
			87.262,202.906 96.189,202.906 96.189,211.834 101.114,211.834 101.114,202.906 110.041,202.906 110.041,197.982 		"/>
	</g>
	<g>
		<rect y="421.713" style="fill:#D7E7FF;" width="500" height="78.287"/>
		<ellipse style="fill:#B3CEFF;" cx="250" cy="457.918" rx="191.171" ry="9.557"/>
		<rect y="414.412" style="fill:#B3CEFF;" width="500" height="7.301"/>
	</g>
	<g>
		<rect x="18.83" y="315.459" style="fill:#F2AD33;" width="69.903" height="115.254"/>
		<polygon style="fill:#E29820;" points="18.83,337.046 88.734,331.052 88.734,322.218 18.83,322.218 		"/>
		<rect x="15.524" y="314.336" style="fill:#FFC943;" width="76.516" height="14.043"/>
		<rect x="66.905" y="337.525" style="fill:#FFD580;" width="16.889" height="16.889"/>
	</g>
	<g>
		<rect x="64.867" y="360.81" style="fill:#FFC943;" width="69.903" height="69.903"/>
		<polygon style="fill:#E29820;" points="64.867,382.397 134.77,376.403 134.77,367.569 64.867,367.569 		"/>
		<rect x="61.56" y="359.687" style="fill:#FFC943;" width="76.516" height="14.043"/>
		<rect x="112.942" y="382.876" style="fill:#FFD580;" width="16.889" height="16.889"/>
	</g>
	<g>
		<path style="fill:none;stroke:#464668;stroke-width:2;stroke-miterlimit:10;" d="M112.252,290.931h0.574
			c5.604,0,10.147,4.543,10.147,10.147v13.225h-20.867v-13.225C102.106,295.474,106.649,290.931,112.252,290.931z"/>
		<g>
			<polygon style="fill:#8F78FF;" points="135.994,359.499 89.853,359.499 96.662,311.39 129.185,311.39 			"/>
			<polygon style="fill:#6636CE;" points="130.009,317.214 95.837,317.214 94.489,326.738 130.59,321.317 			"/>
		</g>
	</g>
	<g>
		<g>
			<path style="fill:#82960D;" d="M52.571,407.957h77.099c3.616,0,6.547,2.931,6.547,6.547v18.538c0,3.616-2.931,6.547-6.547,6.547
				H52.571c-0.761,0-1.378-0.617-1.378-1.378v-28.874C51.193,408.574,51.81,407.957,52.571,407.957z"/>
			<path style="fill:#5E7A11;" d="M79.363,407.957h70.38c3.828,0,6.93,3.103,6.93,6.93v17.77c0,3.828-3.103,6.931-6.93,6.931h-70.38
				V407.957z"/>
			<path style="fill:#D1D11C;" d="M132.027,407.957v31.631h23.967c0.376,0,0.68-0.486,0.68-1.085v-29.461
				c0-0.599-0.305-1.085-0.68-1.085H132.027z"/>
			<rect x="112.68" y="407.957" style="fill:#AFB600;" width="8.724" height="31.631"/>
			<g>
				<rect x="78.125" y="410.506" style="fill:#82960D;" width="78.537" height="1.426"/>
				<rect x="78.125" y="414.093" style="fill:#82960D;" width="78.537" height="1.426"/>
				<rect x="78.125" y="417.68" style="fill:#82960D;" width="78.537" height="1.426"/>
				<rect x="78.125" y="421.266" style="fill:#82960D;" width="78.537" height="1.426"/>
				<rect x="78.125" y="424.853" style="fill:#82960D;" width="78.537" height="1.426"/>
				<rect x="78.125" y="428.44" style="fill:#82960D;" width="78.537" height="1.426"/>
				<rect x="78.125" y="432.027" style="fill:#82960D;" width="78.537" height="1.426"/>
				<rect x="78.125" y="435.614" style="fill:#82960D;" width="78.537" height="1.426"/>
			</g>
		</g>
		<g>
			<rect x="92.635" y="407.437" style="fill:#FFFFFF;" width="22.281" height="32.429"/>
			<rect x="92.635" y="423.177" style="fill:#D0EFF4;" width="22.281" height="16.689"/>
		</g>
	</g>
	<g>
		<path style="fill:#AFB600;" d="M464.19,430.713l-154.059,0c0,0,23.096-38.838,62.627-17.571c0,0,10.088-31.974,49.123-30.491
			C457.762,384.014,464.19,430.713,464.19,430.713z"/>
		<g>
			<path style="fill:#82960D;" d="M490.968,381.635c-3.794,28.213-29.741,48.008-57.953,44.214l0,0v0
				C436.809,397.636,462.755,377.84,490.968,381.635L490.968,381.635L490.968,381.635z"/>
			<g>
				<path style="fill:none;stroke:#AFB600;stroke-width:2;stroke-miterlimit:10;" d="M446.858,396.831
					c25.948-8.825,24.121-41.509,24.121-41.509"/>
				<path style="fill:#FFA840;" d="M473.992,356.297c-0.539,1.664-2.324,2.576-3.988,2.038c-1.664-0.539-2.576-2.324-2.038-3.988
					c0.539-1.664,2.324-2.576,3.988-2.038C473.618,352.848,474.53,354.633,473.992,356.297z"/>
			</g>
			<g>
				<path style="fill:none;stroke:#AFB600;stroke-width:2;stroke-miterlimit:10;" d="M450.8,389.229
					c27.405-0.345,35.802-31.985,35.802-31.985"/>
				<path style="fill:#FFA840;" d="M489.164,359.105c-1.028,1.415-3.009,1.729-4.424,0.701c-1.415-1.028-1.729-3.009-0.701-4.424
					c1.028-1.415,3.009-1.729,4.424-0.701C489.879,355.71,490.192,357.69,489.164,359.105z"/>
			</g>
			<path style="fill:#D1D11C;" d="M458.271,357.245c12.076,25.778,0.968,56.465-24.81,68.542l0,0v0
				C421.384,400.008,432.492,369.321,458.271,357.245L458.271,357.245L458.271,357.245z"/>
		</g>
	</g>
	<g>
		<g>
			<g>
				<g>
					<g>
						<polygon style="fill:#FFB692;" points="404.614,428.93 391.329,428.857 392.439,319.631 405.725,319.704 						"/>
					</g>
				</g>
				<rect x="389.698" y="413.062" style="fill:#FFFFFF;" width="16.867" height="20.037"/>
				<rect x="389.698" y="418.807" style="fill:#D7E7FF;" width="16.867" height="4.845"/>
				<g>
					<polygon style="fill:#B77674;" points="391.901,388.16 405.188,388.16 405.383,381.767 392.096,381.767 					"/>
				</g>
				<g>
					
						<rect x="388.463" y="285.922" transform="matrix(1 -0.0059 0.0059 1 -1.9567 2.3371)" style="fill:#8F78FF;" width="19.596" height="98.977"/>
				</g>
			</g>
			<path style="fill:#8F78FF;" d="M391.561,269.267l-13.906,0c-10.257,0-18.65,8.393-18.65,18.65v0
				c0,10.257,8.392,18.65,18.65,18.65h13.906c10.258,0,18.65-8.393,18.65-18.65v0C410.211,277.66,401.818,269.268,391.561,269.267z"
				/>
			<g>
				<g>
					<g>
						<polygon style="fill:#FFB692;" points="365.924,428.93 379.21,428.857 378.1,319.631 364.814,319.704 						"/>
					</g>
				</g>
				<rect x="363.588" y="413.062" style="fill:#FFFFFF;" width="16.867" height="20.037"/>
				<rect x="363.588" y="418.807" style="fill:#D7E7FF;" width="16.867" height="4.845"/>
				<g>
					<polygon style="fill:#B77674;" points="378.638,388.16 365.351,388.16 365.156,381.767 378.442,381.767 					"/>
				</g>
				<g>
					
						<rect x="322.79" y="325.612" transform="matrix(0.0059 -1 1 0.0059 34.6943 705.719)" style="fill:#8F78FF;" width="98.977" height="19.596"/>
				</g>
				<g>
					<polygon style="fill:#6636CE;" points="388.753,384.963 388.708,375.786 408.325,375.775 408.348,384.953 					"/>
				</g>
				<g>
					<polygon style="fill:#6636CE;" points="381.786,384.963 381.831,375.786 362.214,375.775 362.19,384.953 					"/>
				</g>
			</g>
			<g>
				<g>
					<path style="fill:#FFC943;" d="M360.96,428.93l0.103,11.911c0,0-12.408,0.208-16.042,16.627l37.133-0.036V428.93H360.96z"/>
				</g>
				<path style="fill:#FFFFFF;" d="M361.908,436.475h7.373c1.093,0,1.979-0.886,1.979-1.979l0,0c0-1.093-0.886-1.979-1.979-1.979
					h-7.373c-1.093,0-1.979,0.886-1.979,1.979l0,0C359.928,435.589,360.815,436.475,361.908,436.475z"/>
				<path style="fill:#FFFFFF;" d="M361.908,442.215h7.373c1.093,0,1.979-0.886,1.979-1.979l0,0c0-1.093-0.886-1.979-1.979-1.979
					h-7.373c-1.093,0-1.979,0.886-1.979,1.979l0,0C359.928,441.329,360.815,442.215,361.908,442.215z"/>
				<path style="fill:#FFFFFF;" d="M352.305,444.47c2.352,2.394,4.596,6.463,3.618,12.986l-10.901,0.01
					C346.487,450.849,349.377,446.868,352.305,444.47z"/>
				<rect x="344.39" y="456.593" style="fill:#FFFFFF;" width="38.603" height="3.36"/>
			</g>
			<g>
				<g>
					<path style="fill:#FFC943;" d="M387.831,428.93l0.103,11.911c0,0-12.408,0.208-16.042,16.627l37.133-0.036V428.93H387.831z"/>
				</g>
				<path style="fill:#FFFFFF;" d="M388.778,436.475h7.373c1.093,0,1.979-0.886,1.979-1.979l0,0c0-1.093-0.886-1.979-1.979-1.979
					h-7.373c-1.093,0-1.979,0.886-1.979,1.979l0,0C386.799,435.589,387.685,436.475,388.778,436.475z"/>
				<path style="fill:#FFFFFF;" d="M388.778,442.215h7.373c1.093,0,1.979-0.886,1.979-1.979l0,0c0-1.093-0.886-1.979-1.979-1.979
					h-7.373c-1.093,0-1.979,0.886-1.979,1.979l0,0C386.799,441.329,387.685,442.215,388.778,442.215z"/>
				<path style="fill:#FFFFFF;" d="M379.175,444.47c2.352,2.394,4.596,6.463,3.618,12.986l-10.901,0.01
					C373.357,450.849,376.247,446.868,379.175,444.47z"/>
				<rect x="371.26" y="456.593" style="fill:#FFFFFF;" width="38.603" height="3.36"/>
			</g>
			<g>
				<path style="fill:none;stroke:#FFB692;stroke-width:10;stroke-miterlimit:10;" d="M366.646,209.443
					c-16.061,26.858-24.744,58.596-92.014,32.037"/>
				<path style="fill:#464668;" d="M358.695,211.372c-2.966,4.086-8.427,10.602-16.489,16.339l11.734,12.896
					c0,0,9.707-6.693,19.111-17.939c6.098-7.292-0.626-11.574-6.109-13.684C363.962,207.836,360.571,208.787,358.695,211.372z"/>
			</g>
			<g>
				<path style="fill:#FFB692;" d="M276.344,247.074c7.141-4.255-0.816-13.357-0.816-13.357l-0.433-8.432
					c0,0-7.493,0.712-5.481,7.983c0,0-8.342-6.621-12.906-5.919c-2.143,0.33-7.335,6.958-8.171,11.4
					c-0.177,0.942,0.452,1.837,1.398,1.99c2.273,0.367,6.721,1.545,9.716,5.281C263.825,251.227,272.169,255.816,276.344,247.074z"
					/>
				<path style="fill:#D88D87;" d="M269.614,233.267c0,0-4.149,4.588-0.187,10.602c0,0-2.56-5.9,0.561-10.299L269.614,233.267z"/>
				<path style="fill:#D88D87;" d="M262.625,243.427c0,0,0.996-4.914,4.33-8.665C266.955,234.763,261.715,236.12,262.625,243.427z"
					/>
				<g>
					<path style="fill:#D88D87;" d="M263.056,241.576l0.04-0.407c0,0-7.32-4.327-14.318-3.392c-0.041,0.136-0.078,0.271-0.113,0.405
						C251.341,238.107,257.705,238.324,263.056,241.576z"/>
					<path style="fill:#D88D87;" d="M265.129,236.315l0.495-0.436c0,0-5.703-6.312-12.123-6.061
						c-1.061,1.191-2.154,2.695-3.054,4.254c2.07-0.004,8.202,0.385,13.213,4.783l0.293-0.414c0,0-5.715-6.37-12.881-5.111
						l1.998-2.995C253.069,230.336,259.947,230.303,265.129,236.315z"/>
				</g>
			</g>
			<g>
				<path style="fill:#1D3244;" d="M358.077,283.451c-0.013,2.371,1.323,4.559,3.462,5.582c4.736,2.263,11.615,4.742,20.153,5.341
					c12.018,0.843,21.671-2.433,27.435-5.084c2.171-0.999,3.552-3.181,3.564-5.571c0.116-21.552,0.231-41.303,0.347-62.727
					c0.067-12.374-9.911-22.462-22.285-22.527l-11.29-0.06c-11.555-0.061-20.972,9.256-21.033,20.811L358.077,283.451z"/>
			</g>
			<ellipse style="fill:#FFB692;" cx="384.238" cy="204.65" rx="16.491" ry="7.734"/>
			<g>
				<g>
					<g>
						<g>
							<g>
								<path style="fill:#FFB692;" d="M383.743,141.559h0.946c6.066,0,10.983,7.681,10.983,17.156v46.972H372.76v-46.972
									C372.76,149.24,377.677,141.559,383.743,141.559z"/>
							</g>
						</g>
					</g>
					<g>
						<g>
							<g>
								<path style="fill:#D88D87;" d="M383.743,141.559h0.946c6.066,0,10.983,7.121,10.983,15.905v32.092
									c0,6.327-5.129,11.456-11.456,11.456l0,0c-6.327,0-11.456-5.129-11.456-11.456v-32.092
									C372.76,148.68,377.677,141.559,383.743,141.559z"/>
							</g>
						</g>
					</g>
					<g>
						<g>
							<g>
								<path style="fill:#252538;" d="M371.882,179.948h24.695c5.843,0,10.58-4.737,10.58-10.58v-14.376
									c0-12.662-10.265-22.927-22.927-22.927l0,0c-12.662,0-22.927,10.265-22.927,22.927v14.376
									C361.302,175.211,366.039,179.948,371.882,179.948z"/>
							</g>
						</g>
					</g>
					<g>
						<g>
							<g>
								<path style="fill:#D88D87;" d="M361.027,166.923h46.422c2.031,0,3.677-1.646,3.677-3.678l0,0
									c0-2.031-1.646-3.677-3.677-3.677h-46.422c-2.031,0-3.677,1.646-3.677,3.677l0,0
									C357.35,165.277,358.996,166.923,361.027,166.923z"/>
							</g>
						</g>
					</g>
					<g>
						<g>
							<g>
								<path style="fill:#AA635F;" d="M407.45,165.029c0.983,0,1.783-0.8,1.783-1.783c0-0.984-0.8-1.783-1.783-1.783h-46.423
									c-0.983,0-1.783,0.8-1.783,1.783c0,0.983,0.8,1.783,1.783,1.783H407.45z"/>
							</g>
						</g>
					</g>
					<g>
						<g>
							<g>
								<path style="fill:#FFB692;" d="M384.238,194.742L384.238,194.742c11.337,0,20.527-9.19,20.527-20.528v-19.486
									c0-10.869-8.811-19.68-19.68-19.68h-1.695c-10.869,0-19.68,8.811-19.68,19.68v19.486
									C363.711,185.552,372.901,194.742,384.238,194.742z"/>
							</g>
						</g>
					</g>
					<g>
						<g>
							<g>
								<g>
									<path style="fill:#D88D87;" d="M390.85,159.732h4.717c1.074,0,1.944,0.87,1.944,1.944c0,1.074-0.87,1.944-1.944,1.944
										h-4.717c-1.074,0-1.944-0.87-1.944-1.944C388.906,160.602,389.776,159.732,390.85,159.732z"/>
								</g>
							</g>
						</g>
						<g>
							<g>
								<g>
									<path style="fill:#D88D87;" d="M369.649,159.732h4.717c1.074,0,1.944,0.87,1.944,1.944c0,1.074-0.87,1.944-1.944,1.944
										h-4.717c-1.074,0-1.944-0.87-1.944-1.944C367.705,160.602,368.575,159.732,369.649,159.732z"/>
								</g>
							</g>
						</g>
					</g>
					<g>
						<g>
							<g>
								<g>
									<path style="fill:#252538;" d="M391.71,159.459c1.327,0,2.403,1.076,2.403,2.403c0,1.327-1.076,2.402-2.403,2.402
										c-1.327,0-2.402-1.076-2.402-2.402C389.307,160.535,390.383,159.459,391.71,159.459z"/>
								</g>
							</g>
						</g>
						<g>
							<g>
								<g>
									<path style="fill:#252538;" d="M373.507,159.459c1.327,0,2.402,1.076,2.402,2.403c0,1.327-1.075,2.402-2.402,2.402
										c-1.327,0-2.402-1.076-2.402-2.402C371.104,160.535,372.18,159.459,373.507,159.459z"/>
								</g>
							</g>
						</g>
					</g>
					<g>
						<g>
							<g>
								<g>
									<path style="fill:#252538;" d="M370.706,155.044l4.164-1.312c0.913-0.287,1.885,0.219,2.173,1.132
										c0.288,0.913-0.219,1.886-1.132,2.173l-4.164,1.312c-0.913,0.287-1.885-0.219-2.173-1.132
										C369.286,156.304,369.793,155.331,370.706,155.044z"/>
								</g>
							</g>
						</g>
						<g>
							<g>
								<g>
									<path style="fill:#252538;" d="M392.775,153.732l4.164,1.312c0.913,0.287,1.419,1.26,1.132,2.173
										c-0.288,0.913-1.26,1.419-2.173,1.132l-4.164-1.312c-0.913-0.287-1.419-1.26-1.132-2.173
										C390.89,153.951,391.862,153.445,392.775,153.732z"/>
								</g>
							</g>
						</g>
					</g>
					<g>
						<g>
							<g>
								<path style="fill:#D88D87;" d="M379.016,184.154c0.186,1.073,2.413,1.584,4.976,1.141c2.563-0.443,4.49-1.671,4.305-2.744
									c-0.185-1.073-2.413-1.584-4.976-1.141C380.758,181.853,378.83,183.081,379.016,184.154z"/>
							</g>
						</g>
					</g>
					<g>
						<g>
							<g>
								<path style="fill:#8C5C53;" d="M388.218,172.135l0.484,0.381c-0.248,0.298-3.622,4.159-10.584,3.577l0.59-0.52l-0.424-0.481
									l-1.676,1.475l0.708,0.088c0.796,0.099,1.549,0.144,2.261,0.144c6.337,0,9.35-3.539,9.629-3.884l0.718,0.565
									C389.924,173.478,390.119,171.635,388.218,172.135z"/>
							</g>
						</g>
					</g>
					<g>
						<g>
							<g>
								<g>
									<path style="fill:#252538;" d="M374.763,178.877c1.149,0,2.08-0.932,2.08-2.08v0.222c0-2.126,1.73-3.855,3.855-3.855h5.973
										c2.126,0,3.856,1.729,3.856,3.855v-0.222c0,1.149,0.932,2.08,2.081,2.08s2.081-0.932,2.081-2.08v0.222
										c0-4.42-3.596-8.016-8.017-8.016h-5.973c-4.42,0-8.016,3.596-8.016,8.016v-0.222
										C372.683,177.946,373.615,178.877,374.763,178.877z"/>
								</g>
							</g>
						</g>
					</g>
					<g>
						<g>
							<g>
								<path style="fill:#D88D87;" d="M382.608,171.841L382.608,171.841c1.888,0,3.419-1.53,3.419-3.419v-5.544
									c0-1.888-1.531-3.419-3.419-3.419l0,0c-1.888,0-3.419,1.531-3.419,3.419v5.544
									C379.189,170.31,380.72,171.841,382.608,171.841z"/>
							</g>
						</g>
					</g>
					<g>
						<g>
							<g>
								<path style="fill:#F79C97;" d="M380.792,169.9L380.792,169.9c0.499,0,0.903-0.404,0.903-0.903v-6.417
									c0-0.499-0.405-0.903-0.903-0.903l0,0c-0.499,0-0.903,0.404-0.903,0.903v6.417C379.889,169.495,380.293,169.9,380.792,169.9
									z"/>
							</g>
						</g>
					</g>
				</g>
				<g>
					<g>
						<g>
							<path style="fill:#252538;" d="M390.825,146.156l13.648,4.741l0,0c3.838-11.049-2.008-23.118-13.057-26.956l-13.648-4.741
								l0,0C373.93,130.249,379.775,142.318,390.825,146.156z"/>
						</g>
					</g>
				</g>
				<g>
					<g>
						<g>
							<path style="fill:#252538;" d="M377.33,143.906l10.011,0.749l0,0c0.607-8.105-5.472-15.167-13.577-15.774l-10.012-0.749l0,0
								C363.146,136.237,369.225,143.299,377.33,143.906z"/>
						</g>
					</g>
				</g>
				<path style="fill:#464668;" d="M368.217,139.825c11.301,3.037,20.093-2.822,20.093-2.822s9.522,4.274,16.434,0.84
					c-0.865-2.864-2.329-5.525-4.299-7.795c-3.759,3.179-8.563,5.001-14.417,2.906c0,0-8.196,8.816-22.114-1.378
					C364.427,134.77,365.964,137.651,368.217,139.825z"/>
			</g>
		</g>
		<g>
			<polygon style="fill:#82960D;" points="314.486,227.675 284.19,260.513 357.008,328.412 387.302,295.572 			"/>
			<polygon style="fill:#D1D11C;" points="314.674,232.363 288.879,260.325 356.819,323.724 382.616,295.763 			"/>
			<polygon style="fill:#82960D;" points="314.864,237.051 293.566,260.135 356.63,319.036 377.927,295.951 			"/>
			<path style="fill:#D1D11C;" d="M361.54,308.82c-3.053-2.817-7.812-2.624-10.628,0.429l-47.13-44.203
				c2.816-3.052,2.625-7.81-0.428-10.626l6.599-7.154c3.053,2.817,7.811,2.624,10.626-0.428l47.13,44.202
				c-2.815,3.051-2.624,7.81,0.429,10.628L361.54,308.82z"/>
			<path style="fill:#82960D;" d="M328.627,271.633c-3.665,3.973-3.416,10.164,0.557,13.829c3.973,3.666,10.165,3.416,13.831-0.557
				c3.665-3.972,3.416-10.166-0.557-13.83C338.484,267.409,332.293,267.659,328.627,271.633z"/>
		</g>
		<g>
			<g>
				<path style="fill:#FFB692;" d="M354.356,290.257c3.889-6.031-5.756-10.015-5.756-10.015l-3.57-6.354
					c0,0-5.521,3.426-1.175,8.275c0,0-6.468-0.492-10.144-3.658c-4.488-3.864-6.099,10.009-2.911,15.107
					c1.732,2.769,6.316,1.159,10.067,2.898C346.092,298.936,354.483,298.619,354.356,290.257z"/>
			</g>
			<g>
				<path style="fill:#D88D87;" d="M341.35,289.236l-0.043,0.528c0,0-6.996,0.291-12.138-2.514c-0.018-0.32-0.03-0.641-0.034-0.962
					C331.093,287.606,334.975,289.429,341.35,289.236z"/>
				<path style="fill:#D88D87;" d="M340.75,293.113c0,0-6.306,0.33-10.75-1.229c-0.105-0.305-0.199-0.625-0.284-0.953
					c1.88,0.703,5.791,1.834,11.093,1.617L340.75,293.113z"/>
				<path style="fill:#D88D87;" d="M341.928,285.663c0,0-7.124,0.515-12.372-3.914c0.095-0.439,0.207-0.854,0.333-1.238
					c1.999,1.791,5.896,4.382,12.047,4.788L341.928,285.663z"/>
			</g>
		</g>
		<path style="fill:none;stroke:#FFB692;stroke-width:10;stroke-miterlimit:10;" d="M345.259,290.091
			c10.667,3.085,60.466,13.47,59.485-56.823"/>
		<path style="fill:#464668;" d="M395.992,216.022c0.817,5.015,1.739,13.518,0.224,23.36l17.538,0.579c0,0,3.474-11.932,0.46-26.375
			c-1.519-7.279-7.215-9.553-12.584-7.077C398.712,207.854,395.122,210.683,395.992,216.022z"/>
	</g>
	<g>
		<path style="fill:#1D3244;" d="M156.221,267.228l13.995,0c10.323,0,18.769,8.446,18.769,18.769v0
			c0,10.323-8.446,18.769-18.769,18.769h-13.995c-10.323,0-18.769-8.446-18.769-18.769v0
			C137.452,275.674,145.898,267.228,156.221,267.228z"/>
		<g>
			<path style="fill:none;stroke:#EAA486;stroke-width:10;stroke-miterlimit:10;" d="M184.634,207.456
				c7.612,30.56,0.716,56.299,61.76,52.305"/>
			<g>
				<path style="fill:#FFB692;" d="M238.63,262.036c-7.187-4.282,0.821-13.442,0.821-13.442l0.435-8.486
					c0,0,7.541,0.716,5.516,8.034c0,0,8.396-6.663,12.989-5.956c2.157,0.332,7.382,7.003,8.223,11.473
					c0.179,0.948-0.455,1.848-1.407,2.002c-2.287,0.369-6.764,1.554-9.779,5.315C251.229,266.216,242.832,270.835,238.63,262.036z"
					/>
				<path style="fill:#D88D87;" d="M245.403,248.142c0,0,4.176,4.617,0.188,10.67c0,0,2.577-5.938-0.565-10.365L245.403,248.142z"/>
				<path style="fill:#D88D87;" d="M252.437,258.367c0,0-1.002-4.945-4.358-8.72C248.079,249.647,253.352,251.013,252.437,258.367z"
					/>
				<g>
					<path style="fill:#D88D87;" d="M252.002,256.504l-0.04-0.409c0,0,7.367-4.355,14.41-3.414c0.041,0.137,0.079,0.273,0.113,0.407
						C263.792,253.012,257.388,253.231,252.002,256.504z"/>
					<path style="fill:#D88D87;" d="M249.917,251.209l-0.498-0.439c0,0,5.739-6.352,12.201-6.099
						c1.068,1.199,2.168,2.713,3.074,4.281c-2.083-0.004-8.254,0.388-13.297,4.814l-0.295-0.416c0,0,5.752-6.41,12.963-5.144
						l-2.011-3.014C262.053,245.192,255.132,245.159,249.917,251.209z"/>
				</g>
			</g>
			<path style="fill:#82AADB;" d="M191.905,206.853c0.913,4.999,3.033,13.288,7.851,22.002l-16.26,6.596
				c0,0-5.895-10.298-9.534-24.596c-2.359-9.271,5.606-10.23,11.499-9.759C188.664,201.353,191.327,203.691,191.905,206.853z"/>
		</g>
		<g>
			<rect x="206.66" y="208.579" style="fill:#FFC943;" width="69.903" height="69.903"/>
			<path style="fill:#E29820;" d="M206.66,278.483h16.777c10.047-5.293,17.356-11.517,17.356-11.517H206.66V278.483z"/>
			<polygon style="fill:#E29820;" points="206.66,230.166 276.564,224.172 276.564,215.339 206.66,215.339 			"/>
			<rect x="203.354" y="207.456" style="fill:#FFC943;" width="76.516" height="14.043"/>
			<rect x="254.735" y="230.645" style="fill:#FFD580;" width="16.889" height="16.889"/>
		</g>
		<g>
			<path style="fill:#B3CEFF;" d="M189.919,281.502c0.013,2.387-1.331,4.589-3.484,5.617c-4.767,2.278-11.689,4.772-20.282,5.375
				c-12.095,0.848-21.81-2.449-27.61-5.117c-2.185-1.005-3.574-3.202-3.587-5.607c-0.116-21.69-0.232-41.567-0.349-63.127
				c-0.067-12.453,9.975-22.605,22.427-22.671l11.362-0.06c11.629-0.062,21.106,9.315,21.167,20.944L189.919,281.502z"/>
		</g>
		<path style="fill:#FFB692;" d="M147.019,201.819c-0.233,4.293,6.997,8.175,16.149,8.673c9.152,0.497,16.76-2.579,16.994-6.872
			c0.233-4.293-6.997-8.175-16.149-8.673C154.861,194.45,147.252,197.527,147.019,201.819z"/>
		<g>
			
				<rect x="153.606" y="171.421" transform="matrix(-1 -1.224647e-16 1.224647e-16 -1 328.3341 375.3675)" style="fill:#FFB692;" width="21.123" height="32.525"/>
			<path style="fill:#D88D87;" d="M164.167,199.955L164.167,199.955c5.833,0,10.561-4.729,10.561-10.561v-17.972h-21.123v17.972
				C153.606,195.227,158.334,199.955,164.167,199.955z"/>
			<g>
				<circle style="fill:#54321A;" cx="164.748" cy="149.636" r="24.462"/>
				<path style="fill:#D88D87;" d="M142.054,164.622h45.387c1.986,0,3.595-1.61,3.595-3.595v0c0-1.986-1.61-3.595-3.595-3.595
					h-45.387c-1.986,0-3.595,1.61-3.595,3.595l0,0C138.459,163.013,140.068,164.622,142.054,164.622z"/>
				<path style="fill:#AA635F;" d="M189.154,161.027L189.154,161.027c0-0.946-0.767-1.713-1.713-1.713h-45.388
					c-0.946,0-1.713,0.767-1.713,1.713l0,0c0,0.946,0.767,1.714,1.714,1.714h45.387C188.387,162.74,189.154,161.973,189.154,161.027
					z"/>
				<path style="fill:#54321A;" d="M164.748,194.895L164.748,194.895c11.084,0,20.07-8.986,20.07-20.07v-22.283
					c0-10.626-8.615-19.241-19.241-19.241h-1.657c-10.627,0-19.241,8.615-19.241,19.241v22.283
					C144.678,185.909,153.663,194.895,164.748,194.895z"/>
				<path style="fill:#FFB692;" d="M164.748,189.236L164.748,189.236c11.084,0,20.07-8.986,20.07-20.07v-22.283
					c0-10.626-8.615-19.241-19.241-19.241h-1.657c-10.627,0-19.241,8.614-19.241,19.241v22.283
					C144.678,180.25,153.663,189.236,164.748,189.236z"/>
				<g>
					<path style="fill:#252538;" d="M169.144,170.023c-2.039-0.518-4.873-1.382-7.501-2.684c-1.729-0.857-3.503,1.277-2.737,3.323
						c0.815,2.178,2.408,4.296,5.506,4.862c2.539,0.464,4.236-0.059,5.367-0.91C171.379,173.41,170.961,170.484,169.144,170.023z"/>
					<path style="fill:#FF9292;" d="M164.411,175.525c-3.098-0.566-4.691-2.684-5.506-4.862c-0.115-0.307-0.166-0.615-0.176-0.915
						c1.156-0.397,2.653-0.461,4.595,0.156c2.999,0.953,4.296,3.252,4.811,5.512c0.001,0.005,0.001,0.009,0.002,0.013
						C167.159,175.721,165.94,175.804,164.411,175.525z"/>
					<path style="fill:#FFABAB;" d="M166.142,173.113c-0.356,0.498-1.529,0.303-2.62-0.437c-1.091-0.74-1.686-1.744-1.329-2.242
						c0.356-0.499,1.529-0.303,2.62,0.437C165.903,171.611,166.498,172.615,166.142,173.113z"/>
					<path style="fill:#FFFFFF;" d="M169.144,170.023c-2.039-0.518-4.873-1.382-7.501-2.684c-1.062-0.526-2.138,0.077-2.635,1.094
						c1.468,1.577,3.803,2.961,6.609,3.743c1.799,0.502,3.56,0.691,5.14,0.608C170.878,171.584,170.29,170.314,169.144,170.023z"/>
				</g>
				<path style="fill:#D88D87;" d="M160.143,180.927c0,1.064,2.061,1.928,4.605,1.928c2.543,0,4.604-0.863,4.604-1.928
					c0-1.064-2.061-1.927-4.604-1.927C162.205,179,160.143,179.863,160.143,180.927z"/>
				<g>
					<g>
						<path style="fill:#252538;" d="M169.144,170.023c-2.039-0.518-4.873-1.382-7.501-2.684c-1.729-0.857-3.503,1.277-2.737,3.323
							c0.815,2.178,2.408,4.296,5.506,4.862c2.539,0.464,4.236-0.059,5.367-0.91C171.379,173.41,170.961,170.484,169.144,170.023z"
							/>
						<path style="fill:#FF9292;" d="M164.411,175.525c-3.098-0.566-4.691-2.684-5.506-4.862c-0.115-0.307-0.166-0.615-0.176-0.915
							c1.156-0.397,2.653-0.461,4.595,0.156c2.999,0.953,4.296,3.252,4.811,5.512c0.001,0.005,0.001,0.009,0.002,0.013
							C167.159,175.721,165.94,175.804,164.411,175.525z"/>
						<path style="fill:#FFABAB;" d="M166.142,173.113c-0.356,0.498-1.529,0.303-2.62-0.437c-1.091-0.74-1.686-1.744-1.329-2.242
							c0.356-0.499,1.529-0.303,2.62,0.437C165.903,171.611,166.498,172.615,166.142,173.113z"/>
						<path style="fill:#FFFFFF;" d="M169.144,170.023c-2.039-0.518-4.873-1.382-7.501-2.684c-1.062-0.526-2.138,0.077-2.635,1.094
							c1.468,1.577,3.803,2.961,6.609,3.743c1.799,0.502,3.56,0.691,5.14,0.608C170.878,171.584,170.29,170.314,169.144,170.023z"/>
					</g>
					<g>
						<path style="fill:#252538;" d="M175.832,156.219c1.297,0,2.349,1.052,2.349,2.349c0,1.297-1.052,2.349-2.349,2.349
							c-1.297,0-2.349-1.051-2.349-2.349C173.483,157.271,174.535,156.219,175.832,156.219z"/>
						<circle style="fill:#252538;" cx="158.035" cy="158.568" r="2.349"/>
					</g>
					<path style="fill:#D88D87;" d="M166.933,168.325L166.933,168.325c1.846,0,3.342-1.497,3.342-3.343v-5.421
						c0-1.846-1.496-3.342-3.342-3.342l0,0c-1.846,0-3.343,1.496-3.343,3.342v5.42C163.591,166.828,165.087,168.325,166.933,168.325
						z"/>
					<g>
						<path style="fill:#54321A;" d="M154.109,151.902l4.071-1.282c0.892-0.281,1.843,0.214,2.124,1.107
							c0.281,0.892-0.214,1.843-1.107,2.124l-4.071,1.282c-0.892,0.281-1.843-0.214-2.124-1.107
							C152.721,153.135,153.217,152.184,154.109,151.902z"/>
						<path style="fill:#54321A;" d="M175.686,150.62l4.071,1.282c0.892,0.281,1.388,1.232,1.107,2.125
							c-0.281,0.892-1.232,1.388-2.125,1.107l-4.071-1.282c-0.892-0.281-1.388-1.232-1.107-2.124
							C173.843,150.834,174.794,150.339,175.686,150.62z"/>
					</g>
					<path style="fill:#D88D87;" d="M160.143,180.927c0,1.064,2.061,1.928,4.605,1.928c2.543,0,4.604-0.863,4.604-1.928
						c0-1.064-2.061-1.927-4.604-1.927C162.205,179,160.143,179.863,160.143,180.927z"/>
				</g>
				<path style="fill:#F79C97;" d="M165.158,166.427L165.158,166.427c0.488,0,0.883-0.395,0.883-0.883v-6.274
					c0-0.488-0.395-0.883-0.883-0.883l0,0c-0.488,0-0.883,0.395-0.883,0.883v6.274C164.275,166.032,164.67,166.427,165.158,166.427z
					"/>
				<path style="fill:#54321A;" d="M149.494,130.518c3.62,2.011,6.072,5.87,6.072,10.304c0,6.508-5.276,11.785-11.785,11.785
					c-1.173,0-2.303-0.177-3.371-0.496c-0.082-0.814-0.124-1.64-0.124-2.476C140.286,141.896,143.884,135.001,149.494,130.518z"/>
				<path style="fill:#54321A;" d="M179.9,130.518c-3.62,2.011-6.072,5.87-6.072,10.304c0,6.508,5.276,11.785,11.785,11.785
					c1.172,0,2.303-0.177,3.372-0.496c0.082-0.814,0.124-1.64,0.124-2.476C189.108,141.896,185.51,135.001,179.9,130.518z"/>
				<g>
					<path style="fill:#54321A;" d="M165.37,147.07h-13.381l0,0c0-10.833,8.782-19.615,19.615-19.615h13.381l0,0
						C184.985,138.288,176.203,147.07,165.37,147.07z"/>
					<path style="fill:#54321A;" d="M163.227,142.045l-10.368,3.011l0,0c-2.437-8.394,2.391-17.174,10.785-19.611l10.368-3.011l0,0
						C176.449,130.827,171.62,139.608,163.227,142.045z"/>
					<path style="fill:#54321A;" d="M161.114,141.302l-9.127,5.768l0,0c-4.669-7.388-2.465-17.163,4.924-21.833l9.127-5.768l0,0
						C170.707,126.858,168.503,136.632,161.114,141.302z"/>
				</g>
				<path style="fill:#875330;" d="M152.066,130.037c6.519,5.232,17.749,11.256,31.011,5.863c-1.559,3.264-3.996,6.025-7.002,7.988
					c-8.665,1.394-19.07-1.581-26.383-7.444C150.008,134.176,150.812,131.985,152.066,130.037z"/>
			</g>
		</g>
		<g>
			<path style="fill:none;stroke:#464668;stroke-width:2;stroke-miterlimit:10;" d="M246.438,133.269L246.438,133.269
				c6.235,0,11.289,5.054,11.289,11.289v13.998h-22.577v-13.998C235.149,138.324,240.203,133.269,246.438,133.269z"/>
			<g>
				<polygon style="fill:#EF3F1D;" points="271.814,207.456 221.892,207.456 229.259,155.404 264.447,155.404 				"/>
				<polygon style="fill:#B72969;" points="265.339,161.706 228.367,161.706 226.908,172.011 265.967,166.146 				"/>
			</g>
		</g>
		<g>
			<path style="fill:none;stroke:#FFB692;stroke-width:10;stroke-miterlimit:10;" d="M143.168,210.99
				c7.612,30.56,16.747,56.126,77.791,52.132"/>
			<path style="fill:#82AADB;" d="M148.815,209.547c1.71,4.785,5.015,12.674,11.1,20.555l-15.071,8.988
				c0,0-8.811-8.764-13.158-22.864c-2.191-7.106,1.695-11.851,7.592-12.28C142.484,203.713,146.995,204.453,148.815,209.547z"/>
		</g>
		<g>
			<g>
				<path style="fill:#FFB692;" d="M217.237,263.609c-3.889-6.031,5.756-10.015,5.756-10.015l3.57-6.354
					c0,0,5.521,3.426,1.175,8.275c0,0,6.468-0.493,10.144-3.658c4.488-3.864,6.099,10.009,2.911,15.107
					c-1.731,2.769-6.316,1.159-10.067,2.898C225.501,272.288,217.11,271.971,217.237,263.609z"/>
			</g>
			<g>
				<path style="fill:#D88D87;" d="M230.242,262.589l0.043,0.528c0,0,6.996,0.291,12.138-2.514c0.018-0.32,0.03-0.641,0.034-0.962
					C240.499,260.958,236.617,262.781,230.242,262.589z"/>
				<path style="fill:#D88D87;" d="M230.843,266.465c0,0,6.306,0.33,10.75-1.229c0.105-0.305,0.199-0.625,0.284-0.953
					c-1.88,0.703-5.791,1.834-11.093,1.617L230.843,266.465z"/>
				<path style="fill:#D88D87;" d="M229.664,259.016c0,0,7.124,0.515,12.372-3.914c-0.095-0.439-0.207-0.854-0.333-1.238
					c-1.999,1.791-5.896,4.382-12.047,4.788L229.664,259.016z"/>
			</g>
		</g>
		<g>
			
				<rect x="169.471" y="339.731" transform="matrix(-1 -1.224647e-16 1.224647e-16 -1 352.5027 771.2505)" style="fill:#FFB692;" width="13.56" height="91.788"/>
			
				<rect x="169.471" y="398.345" transform="matrix(-1 -1.224647e-16 1.224647e-16 -1 352.5027 810.2489)" style="fill:#D88D87;" width="13.56" height="13.56"/>
			
				<rect x="169.471" y="421.128" transform="matrix(-1 -1.224647e-16 1.224647e-16 -1 352.5027 852.6471)" style="fill:#FFFFFF;" width="13.56" height="10.392"/>
			<polygon style="fill:#D7E7FF;" points="169.471,422.546 183.031,424.158 183.031,421.128 169.471,421.128 			"/>
			
				<rect x="167.974" y="414.573" transform="matrix(-1 -1.224647e-16 1.224647e-16 -1 352.5026 836.0492)" style="fill:#FFFFFF;" width="16.554" height="6.903"/>
			<g>
				<g>
					<path style="fill:#1D3244;" d="M187.017,427.91l-0.104,11.987c0,0,12.487,0.209,16.144,16.733l-37.37-0.036V427.91H187.017z"/>
				</g>
				<path style="fill:#FFC943;" d="M186.064,435.503h-7.42c-1.1,0-1.992-0.892-1.992-1.992l0,0c0-1.1,0.892-1.992,1.992-1.992h7.42
					c1.1,0,1.992,0.892,1.992,1.992l0,0C188.056,434.612,187.164,435.503,186.064,435.503z"/>
				<path style="fill:#FFC943;" d="M186.064,441.28h-7.42c-1.1,0-1.992-0.892-1.992-1.992l0,0c0-1.1,0.892-1.992,1.992-1.992h7.42
					c1.1,0,1.992,0.892,1.992,1.992l0,0C188.056,440.388,187.164,441.28,186.064,441.28z"/>
				<path style="fill:#FFFFFF;" d="M195.728,443.55c-2.367,2.41-4.625,6.504-3.641,13.069l10.97,0.01
					C201.583,449.97,198.675,445.963,195.728,443.55z"/>
				
					<rect x="164.844" y="455.75" transform="matrix(-1 -1.224647e-16 1.224647e-16 -1 368.5368 914.8802)" style="fill:#FFFFFF;" width="38.85" height="3.381"/>
			</g>
			
				<rect x="165.893" y="294.101" transform="matrix(-1 -1.224647e-16 1.224647e-16 -1 352.5029 702.8472)" style="fill:#1D3244;" width="20.716" height="114.645"/>
		</g>
		<g>
			
				<rect x="143.785" y="339.731" transform="matrix(-1 -1.224647e-16 1.224647e-16 -1 301.1295 771.2505)" style="fill:#FFB692;" width="13.56" height="91.788"/>
			
				<rect x="143.785" y="398.345" transform="matrix(-1 -1.224647e-16 1.224647e-16 -1 301.1295 810.2489)" style="fill:#D88D87;" width="13.56" height="13.56"/>
			
				<rect x="143.785" y="421.128" transform="matrix(-1 -1.224647e-16 1.224647e-16 -1 301.1295 852.6471)" style="fill:#FFFFFF;" width="13.56" height="10.392"/>
			<polygon style="fill:#D7E7FF;" points="143.785,422.546 157.345,424.158 157.345,421.128 143.785,421.128 			"/>
			
				<rect x="142.288" y="414.573" transform="matrix(-1 -1.224647e-16 1.224647e-16 -1 301.1294 836.0492)" style="fill:#FFFFFF;" width="16.554" height="6.903"/>
			<g>
				<g>
					<path style="fill:#1D3244;" d="M161.331,427.91l-0.104,11.987c0,0,12.487,0.209,16.144,16.733l-37.37-0.036V427.91H161.331z"/>
				</g>
				<path style="fill:#FFC943;" d="M160.377,435.503h-7.42c-1.1,0-1.992-0.892-1.992-1.992l0,0c0-1.1,0.892-1.992,1.992-1.992h7.42
					c1.1,0,1.992,0.892,1.992,1.992l0,0C162.369,434.612,161.477,435.503,160.377,435.503z"/>
				<path style="fill:#FFC943;" d="M160.377,441.28h-7.42c-1.1,0-1.992-0.892-1.992-1.992l0,0c0-1.1,0.892-1.992,1.992-1.992h7.42
					c1.1,0,1.992,0.892,1.992,1.992l0,0C162.369,440.388,161.477,441.28,160.377,441.28z"/>
				<path style="fill:#FFFFFF;" d="M170.041,443.55c-2.367,2.41-4.625,6.504-3.641,13.069l10.97,0.01
					C175.897,449.97,172.988,445.963,170.041,443.55z"/>
				
					<rect x="139.157" y="455.75" transform="matrix(-1 -1.224647e-16 1.224647e-16 -1 317.1636 914.8802)" style="fill:#FFFFFF;" width="38.85" height="3.381"/>
			</g>
			
				<rect x="140.207" y="294.101" transform="matrix(-1 -1.224647e-16 1.224647e-16 -1 301.1297 702.8472)" style="fill:#1D3244;" width="20.716" height="114.645"/>
		</g>
	</g>
</g>
</svg>
