<?xml version="1.0" encoding="utf-8"?>
<svg xmlns="http://www.w3.org/2000/svg" viewBox="0 0 500 500" xmlns:bx="https://boxy-svg.com" width="500px" height="500px"><defs><bx:export><bx:file format="svg"/></bx:export></defs><g id="BACKGROUND" transform="matrix(1, 0, 0, 1, -2.81448, 68.1098)"/><g id="OBJECTS" transform="matrix(1.21663, 0, 0, 1.27819, -62.4577, -75.1875)" style=""><g><ellipse style="opacity:0.19;fill:#6CADE3;" cx="250" cy="414.573" rx="177.72" ry="31.339"/><ellipse style="opacity:0.19;fill:#6CADE3;" cx="250" cy="414.573" rx="124.773" ry="22.002"/></g><g><g><path style="fill:none;stroke:#B6DCFD;stroke-miterlimit:10;" d="M172.803,169.587c0.281,3.847-4.368,7.322-4.368,7.322 s-5.104-2.763-5.384-6.61c-0.281-3.847,1.675-7.125,4.368-7.322C170.111,162.78,172.522,165.739,172.803,169.587z"/><path style="fill:none;stroke:#B6DCFD;stroke-miterlimit:10;" d="M156.767,181.13c3.394,1.832,3.824,7.62,3.824,7.62 s-5.074,2.817-8.468,0.985c-3.394-1.832-5.106-5.243-3.824-7.62C149.581,179.738,153.373,179.297,156.767,181.13z"/><g><path style="fill:#B6DCFD;" d="M181.393,247.811c-0.064-0.7-6.754-70.177-33.032-85.583l0.506-0.862 c11.236,6.587,20.295,23.135,26.923,49.185c4.921,19.342,6.583,36.992,6.6,37.168L181.393,247.811z"/></g><path style="fill:none;stroke:#B6DCFD;stroke-miterlimit:10;" d="M156.747,161.138c2.99,3.117,1.462,9.434,1.462,9.434 s-6.375,1.262-9.364-1.855c-2.99-3.117-3.644-7.341-1.462-9.434C149.565,157.19,153.758,158.021,156.747,161.138z"/><g><path style="fill:#B6DCFD;" d="M168.509,187.403l-0.992-0.126c0.841-6.625,0.006-20.627-0.003-20.768l0.998-0.061 C168.547,167.027,169.362,180.685,168.509,187.403z"/></g><g><path style="fill:#B6DCFD;" d="M168.3,190.962c-5.697,0-16.9-6.223-17.375-6.488l0.488-0.873 c0.113,0.063,11.449,6.361,16.887,6.361V190.962z"/></g></g><g><path style="fill:none;stroke:#B6DCFD;stroke-miterlimit:10;" d="M323.591,148.374c-1.377,3.603,2.073,8.269,2.073,8.269 s5.683-1.175,7.06-4.778c1.377-3.603,0.449-7.305-2.073-8.27C328.129,142.632,324.968,144.771,323.591,148.374z"/><path style="fill:none;stroke:#B6DCFD;stroke-miterlimit:10;" d="M335.621,164.048c-3.778,0.776-5.857,6.195-5.857,6.195 s4.047,4.159,7.825,3.383c3.778-0.776,6.401-3.55,5.857-6.195C342.903,164.786,339.4,163.271,335.621,164.048z"/><g><path style="fill:#B6DCFD;" d="M292.828,220.807c0.263-0.652,26.686-65.256,56.288-72.437l-0.236-0.971 c-12.658,3.07-26.1,16.307-39.952,39.343c-10.285,17.104-16.962,33.527-17.028,33.691L292.828,220.807z"/></g><path style="fill:none;stroke:#B6DCFD;stroke-miterlimit:10;" d="M341.4,144.91c-3.761,2.124-4.118,8.613-4.118,8.613 s5.741,3.045,9.502,0.921c3.761-2.124,5.604-5.98,4.118-8.613C349.415,143.198,345.161,142.786,341.4,144.91z"/><g><path style="fill:#B6DCFD;" d="M322.57,166.672l0.986,0.165c1.104-6.586,5.937-19.754,5.986-19.886l-0.938-0.346 C328.404,147.149,323.689,159.993,322.57,166.672z"/></g><g><path style="fill:#B6DCFD;" d="M321.744,170.141c5.456,1.641,17.977-1.09,18.508-1.207l-0.216-0.977 c-0.127,0.028-12.796,2.793-18.003,1.226L321.744,170.141z"/></g></g><g><path style="fill:none;stroke:#B6DCFD;stroke-miterlimit:10;" d="M426.418,267.082c-3.855-0.129-6.817-5.119-6.817-5.119 s3.288-4.782,7.143-4.653c3.855,0.129,6.907,2.421,6.817,5.119C433.472,265.127,430.274,267.21,426.418,267.082z"/><path style="fill:none;stroke:#B6DCFD;stroke-miterlimit:10;" d="M421.564,255.563c-2,2.369-6.624,1.755-6.624,1.755 s-1.382-4.455,0.618-6.825c2-2.369,4.965-3.155,6.624-1.755C423.84,250.139,423.564,253.194,421.564,255.563z"/><path style="fill:none;stroke:#B6DCFD;stroke-miterlimit:10;" d="M395.54,264.185c-2.87,1.173-6.683-1.514-6.683-1.514 s0.84-4.588,3.71-5.761c2.87-1.173,5.862-0.495,6.683,1.514C400.071,260.433,398.41,263.013,395.54,264.185z"/><path style="fill:none;stroke:#B6DCFD;stroke-miterlimit:10;" d="M407.183,277.327c-2.702-1.52-2.967-6.177-2.967-6.177 s4.117-2.193,6.819-0.673s4.03,4.285,2.967,6.177C412.939,278.545,409.886,278.846,407.183,277.327z"/><g><path style="fill:#B6DCFD;" d="M343.732,306.939l-0.951-0.309c0.037-0.114,3.837-11.48,16.151-22.617 c20.545-18.582,48.626-22.356,68.571-22.246l-0.006,1c-19.766-0.108-47.587,3.619-67.894,21.987 C347.485,295.715,343.768,306.829,343.732,306.939z"/></g><g><path style="fill:#B6DCFD;" d="M380.395,271.044l-0.736-0.676c0.372-0.405,9.212-9.952,16.835-11.921l0.25,0.968 C389.409,261.309,380.485,270.947,380.395,271.044z"/></g><g><path style="fill:#B6DCFD;" d="M412.167,274.832c-6.095,0.098-17.238-7.268-17.71-7.582l0.554-0.833 c0.113,0.075,11.355,7.509,17.14,7.414L412.167,274.832z"/></g><g><path style="fill:#B6DCFD;" d="M411.58,263.063l-0.865-0.5c0.218-0.377,5.382-9.262,9.36-10.061l0.198,0.981 C417.334,254.072,413.002,260.598,411.58,263.063z"/></g></g><g><path style="fill:none;stroke:#B6DCFD;stroke-miterlimit:10;" d="M65.451,266.705c3.186-0.483,5.156-4.912,5.156-4.912 s-3.194-3.646-6.38-3.163c-3.186,0.483-5.494,2.682-5.156,4.912C59.409,265.772,62.265,267.188,65.451,266.705z"/><path style="fill:none;stroke:#B6DCFD;stroke-miterlimit:10;" d="M68.354,256.676c1.89,1.77,5.666,0.81,5.666,0.81 s0.712-3.831-1.178-5.601c-1.89-1.77-4.427-2.133-5.666-0.81C65.937,252.398,66.464,254.906,68.354,256.676z"/><path style="fill:none;stroke:#B6DCFD;stroke-miterlimit:10;" d="M90.784,261.291c2.495,0.693,5.396-1.908,5.396-1.908 s-1.144-3.725-3.64-4.418c-2.495-0.693-4.911,0.161-5.396,1.908C86.66,258.62,88.289,260.598,90.784,261.291z"/><path style="fill:none;stroke:#B6DCFD;stroke-miterlimit:10;" d="M82.407,273.328c2.094-1.524,1.859-5.414,1.859-5.414 s-3.629-1.418-5.723,0.107c-2.094,1.524-2.926,3.948-1.859,5.414C77.752,274.9,80.314,274.852,82.407,273.328z"/><g><path style="fill:#B6DCFD;" d="M137.934,291.704l0.758-0.349c-0.042-0.091-4.303-9.15-15.605-17.188 c-18.857-13.411-42.519-13.803-59.055-11.766l0.103,0.829c16.387-2.018,39.83-1.64,58.468,11.617 C133.726,282.759,137.893,291.616,137.934,291.704z"/></g><g><path style="fill:#B6DCFD;" d="M104.017,265.503l0.544-0.633c-0.348-0.3-8.613-7.358-15.129-8.247l-0.113,0.828 C95.59,258.307,103.933,265.431,104.017,265.503z"/></g><g><path style="fill:#B6DCFD;" d="M78.029,271.745c5.066-0.513,13.592-7.711,13.952-8.017l-0.541-0.637 c-0.086,0.073-8.687,7.337-13.496,7.823L78.029,271.745z"/></g><g><path style="fill:#B6DCFD;" d="M77.368,261.924l0.669-0.499c-0.217-0.292-5.368-7.159-8.746-7.434l-0.069,0.833 C71.718,255.027,75.949,260.018,77.368,261.924z"/></g></g></g><g><g><g><path style="fill:#6CADE3;" d="M368.423,358.186H124.894c-2.433,0-4.424,2.069-4.424,4.597v1.29 c0,0.947,0.279,1.828,0.756,2.562l3.913,33.845c0,0,4.325,2.823,6.055-2.117c1.261-3.6,4.357-20.685,5.945-29.692h38.274 l3.352,28.986c0,0,4.325,2.823,6.054-2.117c1.138-3.251,3.775-17.502,5.445-26.869h110.856l3.923,33.926 c0,0,4.325,2.823,6.054-2.117c1.369-3.908,4.9-23.704,6.317-31.809h37.657l3.596,31.104c0,0,4.325,2.823,6.055-2.117 c1.258-3.593,4.345-20.621,5.936-29.641c1.302-0.802,2.189-2.263,2.189-3.942v-1.29 C372.846,360.255,370.855,358.186,368.423,358.186z"/><g><g><path style="fill:#6CADE3;" d="M193.925,258.353c-0.757-0.036-1.505-0.021-2.244,0.029l-60.774,0.777 c-11.359-0.538-21.071,8.811-21.582,20.776l-2.786,65.262c-0.511,11.965,8.365,22.194,19.724,22.732 c0.757,0.036,1.505,0.021,2.245-0.029l60.774-0.777c11.359,0.538,21.071-8.811,21.582-20.776l2.786-65.262 C214.161,269.121,205.285,258.891,193.925,258.353z"/><path style="opacity:0.24;fill:#FFFFFF;" d="M146.089,346.143l2.786-65.262c0.315-7.388,4.145-13.77,9.698-17.451 c1.515-1.408,3.154-2.662,4.897-3.741l-32.563,0.416c-11.359-0.538-21.071,8.811-21.582,20.776l-2.786,65.262 c-0.511,11.964,8.365,22.194,19.724,22.732c0.757,0.036,1.505,0.021,2.245-0.029l34.014-0.435 C152.794,366.265,145.629,356.921,146.089,346.143z"/></g></g><path style="fill:#6CADE3;" d="M338.343,318.008H182.668c-12.896,0-21.428-10.112-18.971-22.422l19.225-96.31 c2.364-11.841,14.579-21.491,27.154-21.491h151.808c12.575,0,21.284,9.65,19.345,21.491l-15.769,96.31 C363.445,307.896,351.239,318.008,338.343,318.008z"/><g><path style="fill:#B6DCFD;" d="M323.731,312.569H189.797c-5.721,0-10.666-2.312-13.925-6.512 c-3.149-4.059-4.3-9.375-3.243-14.971l16.54-87.583c2.111-11.184,12.972-20.28,24.21-20.28h130.606 c5.594,0,10.68,2.335,13.952,6.406c3.106,3.864,4.364,8.908,3.544,14.201l-13.567,87.583 C346.107,303.079,335.258,312.569,323.731,312.569z M213.378,185.052c-10.455,0-20.554,8.438-22.513,18.808l-16.54,87.583 c-0.953,5.049,0.071,9.826,2.885,13.454c2.924,3.768,7.393,5.842,12.586,5.842h133.934c10.717,0,20.799-8.802,22.476-19.623 l13.567-87.583c0.737-4.754-0.384-9.272-3.155-12.72c-2.986-3.716-7.474-5.761-12.634-5.761H213.378z"/></g><path style="fill:#6CADE3;" d="M341.89,362.632H175.72c-13.876,0-25.228-11.353-25.228-25.228v-8.549 c0-13.876,11.353-25.228,25.228-25.228H341.89c13.875,0,25.228,11.353,25.228,25.228v8.549 C367.118,351.279,355.766,362.632,341.89,362.632z"/><g style="opacity:0.67;"><rect x="150.491" y="327.879" style="fill:#B6DCFD;" width="216.627" height="1.829"/></g><g style="opacity:0.67;"><path style="fill:#B6DCFD;" d="M149.594,329.035c-0.091-0.448-2.145-11.089,4.357-18.799 c4.457-5.286,11.793-7.787,21.795-7.525l-0.054,1.829c-9.395-0.288-16.252,2.031-20.334,6.864 c-5.935,7.026-3.991,17.168-3.971,17.27L149.594,329.035z"/></g></g><path style="fill:#6CADE3;" d="M138.616,286.847c-0.358,8.514-5.525,15.189-11.54,14.909c-6.016-0.28-10.602-7.41-10.244-15.924 c0.358-8.514,5.524-15.189,11.54-14.909C134.388,271.203,138.974,278.333,138.616,286.847z"/></g><g><g><path style="fill:#101A46;" d="M316.14,130.443c0-3.207-1.059-6.154-2.822-8.526c0.82-4.133-0.395-8.624-3.642-11.871 c-1.617-1.617-3.543-2.728-5.579-3.339c-1.637-4.96-5.893-8.678-11.093-9.459c-0.631-1.297-1.474-2.521-2.554-3.601 c-5.121-5.121-13.342-5.204-18.36-0.185c-0.395,0.395-0.747,0.816-1.078,1.247c-2.079-1.832-4.781-2.948-7.744-2.948 c-4.466,0-8.351,2.521-10.375,6.242c-4.179-0.946-8.695,0.167-11.904,3.376c-4.267,4.267-4.832,10.841-1.763,15.865 c-3.1,2.593-5.08,6.529-5.08,10.938c0,7.808,6.203,14.137,13.854,14.137s13.854-6.329,13.854-14.137 c0-3.012-0.93-5.798-2.503-8.091c0.06-0.058,0.125-0.107,0.184-0.166c1.184-1.184,2.074-2.55,2.691-4.008 c0.344,0.031,0.69,0.054,1.042,0.054c3.585,0,6.791-1.63,8.966-4.194c0.015,0.015,0.027,0.031,0.042,0.046 c1.566,1.566,3.423,2.655,5.388,3.277c1.503,5.373,6.035,9.432,11.596,10.135c0.03,0.055,0.066,0.107,0.097,0.162 c-0.589,1.569-0.925,3.266-0.925,5.047c0,2.757,0.786,5.322,2.124,7.497c-0.027,0.08-0.057,0.16-0.082,0.241 c-3.797,0.176-7.52,1.678-10.392,4.551c-6.203,6.203-6.1,16.363,0.229,22.693c6.33,6.33,16.49,6.432,22.693,0.229 c3.067-3.067,4.586-7.101,4.58-11.161c1.659-0.615,3.214-1.575,4.542-2.902c3.92-3.92,4.713-9.787,2.439-14.611 C315.565,135.024,316.14,132.803,316.14,130.443z"/><path style="fill:#101A46;" d="M264.403,308.381c2.716-17.413-34.818-35.513-34.818-35.513 c-21.655-3.418-39.958,2.436-46.632,3.327c-6.89,0.075-13.169,4.684-15.037,11.666c-2.248,8.403,2.741,17.037,11.144,19.286 c1.826,0.489,3.66,0.617,5.44,0.461c0.05,0.063,0.079,0.099,0.079,0.099C229.807,313.006,264.403,308.381,264.403,308.381z"/><g><path style="fill: rgb(108, 99, 255);" d="M188.033,384.641c0,0,5.266,21.249,0.993,28.905l-44.977,2.593c0,0-4.053-11.89,11.865-16.175 c15.918-4.285,15.182-17.04,15.182-17.04l18.048-2.387L188.033,384.641z"/><path style="fill:#FFFFFF;" d="M155.122,400.196c3.663,4.003,4.245,9.418,4.065,15.069l-15.139,0.873 C144.048,416.138,140.148,404.659,155.122,400.196z"/><path style="fill:#FFFFFF;" d="M145.706,418.737l43.065-2.483c0.827-0.048,1.464-0.763,1.417-1.59l-0.016-0.28 c-0.048-0.827-0.763-1.465-1.59-1.417l-43.065,2.483c-0.827,0.048-1.464,0.763-1.417,1.59l0.016,0.28 C144.164,418.147,144.88,418.784,145.706,418.737z"/><path style="fill:#FFFFFF;" d="M168.106,392.339c1.977,0.025,3.707,1.369,4.22,3.278c0.087,0.315,0.355,0.567,0.648,0.538l0,0 c0.292-0.028,0.493-0.408,0.383-0.816c-0.637-2.368-2.784-4.036-5.236-4.067c-0.423-0.006-0.741,0.283-0.696,0.573l0,0 C167.468,392.134,167.779,392.333,168.106,392.339z"/><path style="fill:#FFFFFF;" d="M163.918,395.623c1.977,0.025,3.707,1.369,4.22,3.278c0.087,0.315,0.355,0.567,0.648,0.538l0,0 c0.292-0.028,0.493-0.408,0.383-0.816c-0.637-2.368-2.784-4.036-5.236-4.067c-0.423-0.006-0.741,0.283-0.696,0.573l0,0 C163.281,395.419,163.591,395.617,163.918,395.623z"/><path style="fill:#FFFFFF;" d="M158.591,399.132c1.977,0.025,3.707,1.369,4.22,3.278c0.087,0.315,0.355,0.567,0.648,0.538l0,0 c0.292-0.028,0.493-0.408,0.383-0.816c-0.637-2.368-2.784-4.036-5.236-4.067c-0.423-0.006-0.741,0.283-0.696,0.573l0,0 C157.954,398.928,158.264,399.126,158.591,399.132z"/><path style="fill:#FFFFFF;" d="M179.224,394.278c0.107,1.862,1.703,3.284,3.565,3.176c1.861-0.107,3.284-1.703,3.176-3.565 c-0.107-1.862-1.703-3.284-3.565-3.176C180.539,390.821,179.117,392.417,179.224,394.278z"/></g><path style="fill:#101A46;" d="M275.655,268.471c0,0,18.819,23.524,6.273,42.342l-65.866-3.921c0,0-7.057-22.739,15.682-38.422 H275.655z"/><path style="fill:#101A46;" d="M303.846,316.857c9.476-2.855,14.843-12.85,11.989-22.326c-1.269-4.214-3.955-7.608-7.375-9.835 l0.004-0.029c-13.04-12.431-84.569,13.364-84.569,13.364l4.987,14.872C298.494,324.281,303.846,316.857,303.846,316.857z"/><path style="fill:#AA664F;" d="M261.64,171.464c0,0-1.203,12.266-3.608,17.717c-2.405,5.451,24.055,10.903,29.468,4.77 l4.629-32.408C292.128,161.544,265.248,157.835,261.64,171.464z"/><path style="opacity:0.25;fill:#AA664F;" d="M286.749,168.848c-2.893,2.079-6.367,3.43-9.628,4.538 c-4.967,1.687-10.735,3.887-15.888,3.065c-0.099,0.654-0.211,1.337-0.329,2.026 C270.409,180.454,280.356,176.265,286.749,168.848z"/><path style="fill: rgb(108, 99, 255);" d="M239.016,190.556c0,0-14.943-1.198-22.965,39.176c0,0-1.986,16.248,6.165,16.901 C230.367,247.287,250.778,205.855,239.016,190.556z"/><path style="fill:#101A46;" d="M200.898,292.417c-1.585-9.769-10.788-16.403-20.557-14.818 c-4.344,0.705-8.061,2.921-10.719,6.019l-0.028-0.008c-14.037,11.294,1.898,102.843,1.898,102.843l18.242-1.02 C210.159,317.921,200.898,292.417,200.898,292.417z"/><g><path style="fill: rgb(108, 99, 255);" d="M229.178,312.844c0,0-13.716,2.435-19.188,4.975c-5.472,2.54-19.278,9.48-23.449-2.258 c-4.172-11.738-2.67-18.821,2.552-20.18s35.887,3.113,35.887,3.113L229.178,312.844z"/><path style="fill:#FFFFFF;" d="M196.114,295.505c0,0,16.887,10.533,4.771,25.868c0,0-11.486,4.719-14.721-5.715 c-3.235-10.434-3.712-17.36,2.552-20.181C194.979,292.657,196.114,295.505,196.114,295.505z"/><path style="fill:#FFFFFF;" d="M209.401,310.584c1.439-2.685,0.916-6.021-1.276-8.136c-0.361-0.352-0.5-0.902-0.242-1.275l0,0 c0.256-0.372,0.918-0.361,1.386,0.092c2.72,2.624,3.369,6.764,1.583,10.095c-0.307,0.575-0.934,0.789-1.292,0.512l0,0 C209.201,311.596,209.165,311.029,209.401,310.584z"/><path style="fill:#FFFFFF;" d="M215.207,310.251c1.44-2.685,0.916-6.021-1.276-8.136c-0.361-0.352-0.5-0.902-0.242-1.275l0,0 c0.256-0.372,0.918-0.361,1.386,0.092c2.72,2.625,3.369,6.764,1.583,10.095c-0.307,0.575-0.934,0.788-1.292,0.512l0,0 C215.008,311.263,214.972,310.696,215.207,310.251z"/><g style="opacity:0.33;"><path style="fill:#6CADE3;" d="M188.286,309.877c-2.412-9.264,0.208-14.438,0.362-14.731l0.885,0.467 c-0.049,0.093-4.778,9.545,4.783,25.756l-0.861,0.509C190.778,317.339,189.184,313.324,188.286,309.877z"/></g></g><path style="fill:#AA664F;" d="M295.877,131.627c-1.767-14.149-14.451-24.213-28.328-22.479 c-20.978,2.612-22.261,25.252-22.261,25.252s-7.742,41.493,22.675,42.914c0,0,25.665,2.689,27.913-39.117 C296.145,136.065,296.156,133.862,295.877,131.627z"/><path style="fill:#AA664F;" d="M300.103,153.774c-1.465,5.01-5.174,8.334-8.283,7.424c-3.11-0.909-4.443-5.708-2.978-10.718 c1.465-5.01,5.174-8.334,8.283-7.424C300.235,143.966,301.568,148.764,300.103,153.774z"/><path style="opacity:0.25;fill:#AA664F;" d="M297.77,153.092c-0.858,2.934-3.03,4.881-4.852,4.349 c-1.821-0.533-2.602-3.343-1.744-6.277c0.858-2.934,3.03-4.881,4.852-4.349C297.848,147.347,298.628,150.158,297.77,153.092z"/><path style="fill:#101A46;" d="M250.96,140.866c0,1.391-0.695,2.518-1.553,2.518c-0.858,0-1.553-1.127-1.553-2.518 c0-1.391,0.695-2.518,1.553-2.518C250.264,138.348,250.96,139.475,250.96,140.866z"/><path style="fill:#101A46;" d="M268.326,141.587c0,1.391-0.695,2.518-1.553,2.518c-0.858,0-1.553-1.127-1.553-2.518 s0.695-2.518,1.553-2.518C267.63,139.069,268.326,140.196,268.326,141.587z"/><path style="fill:#101A46;" d="M253.537,140.302c-0.361,2.05-0.834,4.066-1.375,6.062c-0.534,1.998-1.13,3.977-1.782,5.939 l-0.114-0.435c0.322,0.308,0.748,0.605,1.166,0.847c0.428,0.242,0.888,0.422,1.365,0.549c0.477,0.125,0.978,0.181,1.483,0.154 c0.511-0.009,1.007-0.153,1.516-0.295c-0.881,0.557-2.003,0.869-3.103,0.71c-0.55-0.061-1.088-0.222-1.595-0.447 c-0.513-0.229-0.972-0.506-1.429-0.895l-0.189-0.161l0.074-0.275c0.538-1.997,1.132-3.976,1.788-5.938 C251.991,144.154,252.708,142.211,253.537,140.302z"/><g><path style="fill:#101A46;" d="M260.938,158.455h-8.989c0.108,2.442,2.106,4.393,4.574,4.393c2.474,0,4.477-1.96,4.576-4.41 C261.045,158.443,260.995,158.455,260.938,158.455z"/><path style="fill:#FFFFFF;" d="M260.719,160.079c0.219-0.507,0.357-1.058,0.38-1.64c-0.055,0.004-0.104,0.016-0.161,0.016 h-8.989c0.025,0.576,0.164,1.121,0.381,1.624H260.719z"/></g><path style="fill:#101A46;" d="M246.523,127.533c0,0,6.306-12.253,9.37-0.541c0,0,14.955-16.577,24.145,4.144 c0,0,4.685,7.207,7.568,8.829c0,0-2.162,10.09,1.081,14.955c0,0,3.905-13.638,8.439-11.864c4.534,1.774,0.21-0.569,0.21-0.569 s0.721-14.595-1.261-20c-1.982-5.405-18.018-18.379-18.018-18.379s-31.532-4.685-32.253,23.424"/><path style="fill:#101A46;" d="M262.866,131.154c0,0-0.961,1.816-0.16,2.365c0.8,0.549,8.852,0.875,10.901,2.442l0.688-2.246 C274.294,133.713,268.749,130.44,262.866,131.154z"/><path style="fill:#101A46;" d="M252.315,130.928c0,0,0.827,1.865,0.097,2.362c-0.73,0.497-7.968,0.334-9.84,1.769l-0.573-2.277 C241.998,132.782,247.044,129.861,252.315,130.928z"/><path style="fill: rgb(108, 99, 255);" d="M195.432,233.78c-0.904-10.455,6.556-19.639,16.662-20.512 c10.106-0.874,19.032,6.893,19.936,17.348c0.904,10.455-6.556,19.639-16.662,20.512 C205.261,252.001,196.336,244.234,195.432,233.78z"/><g><path style="fill: rgb(108, 99, 255);" d="M290.028,195.128c0,0,14.769-9.254,22.718,2.824c7.949,12.078,34.113,51.95,29.733,57.24 c-4.379,5.29-21.406,13.861-38.945-18.311C303.533,236.881,285.27,207.53,290.028,195.128z"/><path style="fill: rgb(108, 99, 255);" d="M238.116,190.544c0,0,62.912,0.654,66.099,1.363c3.187,0.708-13.345,88.749-15.673,98.807 c0,0-56.559,1.363-72.913-18.399C215.629,272.316,226.485,206.323,238.116,190.544z"/><path style="opacity:0.1;fill:#101A46;" d="M295.175,224.917c-3.807,19.227-10.642,38.993-28.816,48.566 c-16.684,8.789-35.502,5.188-49.993-5.45c-0.479,2.71-0.738,4.282-0.738,4.282c16.354,19.761,72.913,18.399,72.913,18.399 c1.247-5.389,6.571-33.16,10.756-57.894C297.571,230.434,296.229,227.75,295.175,224.917z"/><path style="fill: rgb(108, 99, 255);" d="M258.032,189.181c0,0-4.243-7.496-0.836-7.496c3.407,0,36.797-0.682,36.797,2.044 c0,2.726-1.363,10.221-1.363,10.221S258.186,199.403,258.032,189.181z"/><g style="opacity:0.44;"><path style="fill:#101A46;" d="M289.367,188.979l-0.287-0.958c-6.618,1.985-28.831-2.689-29.055-2.736l-0.207,0.979 c0.754,0.16,15.429,3.246,24.512,3.246C286.361,189.509,288.113,189.355,289.367,188.979z"/><path style="fill:#101A46;" d="M267.787,193.76l0.024-0.138c-0.024-0.004-0.336-0.056-0.793,0.033 c-3.269-0.451-5.573-0.864-5.643-0.877l-0.18,0.983c0.239,0.044,1.875,0.337,4.264,0.689c-0.034,0.029-0.068,0.05-0.102,0.081 c-1.557,1.441-3.208,5.201-2.238,14.939l1.624,16.331l0.994-0.099l-1.624-16.33c-0.97-9.754,0.767-13.004,1.888-14.073 c0.385-0.367,0.752-0.539,1.043-0.623c2.458,0.338,5.437,0.69,8.446,0.91c-0.196,2.529-1.508,18.953-3.373,28.906l0.982,0.185 c1.878-10.014,3.195-26.511,3.389-29.023c1.506,0.094,3.004,0.151,4.433,0.151c3.666,0,6.874-0.372,8.567-1.43l-0.529-0.848 C285.526,195.671,274.809,194.695,267.787,193.76z"/><path style="fill:#101A46;" d="M294.174,209.624c0,0.563,0.055,13.861,4.849,21.393l0.844-0.537 c-4.636-7.284-4.692-20.721-4.692-20.855H294.174z"/><path style="fill:#101A46;" d="M235.18,208.426l-0.943-0.33c-4.769,13.629-14.991,42.93-14.991,42.93l0.943,0.33 C220.189,251.356,230.411,222.055,235.18,208.426z"/><path style="fill:#101A46;" d="M278.815,266.259l0.074-0.485l-44.448-7.64l-0.171,0.314 c-3.954,7.249-17.329,12.668-17.464,12.723l0.371,0.928c0.556-0.222,13.478-5.458,17.794-12.858l42.788,7.354 c-0.384,2.969-1.879,18.028,6.457,22.517l0.475-0.881C276.246,283.682,278.789,266.432,278.815,266.259z"/><path style="fill:#101A46;" d="M203.179,243.11c-4.415-3.846-4.765-10.276-4.769-10.34l-0.998,0.046 c0.013,0.28,0.366,6.91,5.102,11.042c2.401,2.095,5.487,3.151,9.193,3.151c0.623,0,1.264-0.03,1.921-0.09l-0.09-0.996 C209.249,246.312,205.769,245.366,203.179,243.11z"/><path style="fill:#101A46;" d="M227.394,221.208h1c0-9.114-4.249-10.635-4.43-10.695l-0.321,0.947 C223.681,211.473,227.394,212.888,227.394,221.208z"/></g></g><g style="opacity:0.39;"><path style="fill:#B6DCFD;" d="M226.601,298.705l-0.139-0.99c1.786-0.252,43.815-6.13,47.993-4.04l-0.447,0.895 C270.772,292.95,238.689,297.005,226.601,298.705z"/></g><g style="opacity:0.39;"><rect x="191.961" y="285.99" transform="matrix(0.7399 -0.6727 0.6727 0.7399 -145.7378 205.1712)" style="fill:#B6DCFD;" width="1" height="10.13"/></g><path style="fill:#AA664F;" d="M203.267,237.936c4.588,4.427,11.896,4.296,16.323-0.292c3.16-3.275,3.985-7.932,2.537-11.942 c0.123-1.395,0.238-10.048-11.389-35.413c1.069-1.208,3.226-4.113,3.339-7.999c0.15-5.178,1.412-10.894-1.853-10.728 c0,0-0.694,0.082-1.112,3.534c-0.215,1.781-0.78,2.557-1.44,2.798l-4.495-7.169c0,0-3.495-13.94-5.804-12.875 c0,0-0.975,0.487-0.821,1.654c0.116,0.879,2.442,8.706,3.581,12.507c-0.343,0.153-0.704,0.317-1.079,0.491 c-0.029-0.102-0.05-0.197-0.087-0.305c0,0-5.574-15.137-7.775-13.863c0,0-0.924,0.578-0.599,1.852 c0.249,0.975,3.86,9.72,5.536,13.757c-0.329,0.173-0.656,0.349-0.98,0.528c-0.808-1.789-5.871-12.774-7.796-11.449 c0,0-0.878,0.646-0.528,1.769c0.257,0.824,3.696,7.778,5.51,11.423c-0.18,0.128-0.353,0.256-0.52,0.384 c-0.538-1.105-4.518-9.12-6.15-7.844c0,0-0.736,0.605-0.475,1.423c0.211,0.662,3.432,6.57,4.646,8.786l5.667,13.519 c0,0,0.479,27.152,2.307,38.398c0.053,0.492,0.146,0.978,0.262,1.461c0.228,1.128,0.474,2.024,0.741,2.597 c0.304,0.652,0.704,1.141,1.169,1.509C202.364,236.969,202.785,237.472,203.267,237.936z"/><g style="opacity:0.54;"><path style="fill:#101A46;" d="M206.047,189.533c-0.16,0-0.317-0.077-0.414-0.22c-4.738-7.016-0.964-12.933-0.925-12.992 c0.151-0.229,0.46-0.293,0.691-0.144c0.23,0.15,0.296,0.461,0.146,0.691c-0.143,0.219-3.439,5.436,0.916,11.884 c0.155,0.229,0.095,0.54-0.134,0.694C206.242,189.506,206.144,189.533,206.047,189.533z"/></g></g><g><g><path style="fill:#6CADE3;" d="M373.737,257.672c-0.757-0.036-1.504-0.021-2.244,0.029l-60.774,0.782 c-11.359-0.541-21.071,8.865-21.582,20.904l-2.786,65.664c-0.511,12.038,8.365,22.331,19.724,22.872 c0.757,0.036,1.505,0.021,2.245-0.029l60.774-0.782c11.359,0.541,21.071-8.865,21.582-20.904l2.786-65.664 C393.972,268.506,385.096,258.213,373.737,257.672z"/><path style="opacity:0.24;fill:#FFFFFF;" d="M325.9,346.003l2.786-65.664c0.316-7.433,4.145-13.854,9.698-17.559 c1.515-1.417,3.154-2.679,4.897-3.764l-32.563,0.419c-11.359-0.541-21.071,8.865-21.582,20.904l-2.786,65.664 c-0.511,12.038,8.365,22.331,19.724,22.872c0.757,0.036,1.505,0.021,2.245-0.029l34.014-0.438 C332.606,366.249,325.44,356.847,325.9,346.003z"/></g><g><path style="fill:#6CADE3;" d="M306.648,303.764c-6.948,0-12.6-7.058-12.6-15.735c0-8.677,5.652-15.735,12.6-15.735 c6.948,0,12.6,7.058,12.6,15.735C319.248,296.706,313.596,303.764,306.648,303.764z"/></g></g><g><ellipse transform="matrix(0.999 -0.0454 0.0454 0.999 -10.9318 15.1417)" style="fill: rgb(108, 99, 255);" cx="327.617" cy="248.046" rx="20.882" ry="20.186"/><path style="fill:#AA664F;" d="M341.394,250.4c0-6.376-5.168-11.544-11.544-11.544c-4.551,0-8.475,2.64-10.355,6.466 c-1.089,0.88-7.396,6.806-17.576,32.785c-1.612,0.069-5.2,0.534-8.075,3.151c-3.831,3.487-8.82,6.548-6.434,8.782 c0,0,0.541,0.443,3.315-1.654c1.431-1.081,2.382-1.214,3.013-0.906l-2.038,8.213c0,0-7.605,12.194-5.235,13.116 c0,0,1.027,0.363,1.76-0.557c0.552-0.694,4.569-7.802,6.514-11.261c0.349,0.141,0.717,0.287,1.102,0.436 c-0.053,0.092-0.107,0.173-0.159,0.275c0,0-7.023,14.522-4.578,15.222c0,0,1.058,0.263,1.748-0.854 c0.529-0.856,4.314-9.527,6.056-13.537c0.352,0.117,0.706,0.23,1.06,0.338c-0.726,1.824-5.116,13.095-2.825,13.56 c0,0,1.074,0.183,1.64-0.849c0.415-0.757,3.031-8.06,4.395-11.897c0.217,0.041,0.429,0.077,0.637,0.108 c-0.422,1.154-3.426,9.584-1.374,9.873c0,0,0.946,0.109,1.354-0.646c0.33-0.612,2.345-7.032,3.096-9.444l5.794-13.465 c0,0,19.207-19.198,26.031-28.322c0.317-0.38,0.602-0.784,0.869-1.203c0.654-0.947,1.128-1.746,1.355-2.337 c0.258-0.671,0.332-1.299,0.274-1.889C341.325,251.721,341.394,251.069,341.394,250.4z"/><path style="opacity:0.36;fill:#101A46;" d="M331.338,229.867l0.268-0.964c-5.18-1.438-10.932,0.274-16.635,4.951 c-4.264,3.496-6.966,7.349-7.078,7.512l0.82,0.57C308.82,241.782,319.558,226.592,331.338,229.867z"/><path style="opacity:0.36;fill:#101A46;" d="M327.432,233.846c-4.957,1.365-9.002,3.867-9.172,3.974l0.529,0.848 c0.16-0.098,16.06-9.86,22.497-0.814l0.815-0.58C339.195,233.188,334.122,232.002,327.432,233.846z"/></g></g></g><g><g><path style="fill:#101A46;" d="M357.495,323.916c0.627,0.507,0.999,1.206,1.123,1.944l86.741-0.812l0.009,1l-86.741,0.812 c-0.081,0.542-0.29,1.071-0.659,1.528c-1.104,1.366-3.106,1.578-4.472,0.473c-1.366-1.104-1.578-3.106-0.474-4.472 C354.128,323.024,356.13,322.812,357.495,323.916z"/><g><ellipse transform="matrix(0.9722 -0.2341 0.2341 0.9722 -64.882 106.1097)" style="opacity:0.19;fill:#6CADE3;" cx="414.577" cy="326.389" rx="43.209" ry="43.209"/><ellipse transform="matrix(0.969 -0.2469 0.2469 0.969 -67.7428 112.4463)" style="fill:#FFFFFF;" cx="414.577" cy="326.389" rx="40.03" ry="40.03"/></g></g><g><path style="fill:#101A46;" d="M397.635,319.655c-6.228,0-11.277,5.049-11.277,11.277s5.049,11.277,11.277,11.277 c6.228,0,11.277-5.049,11.277-11.277S403.863,319.655,397.635,319.655z M397.635,340.62c-5.351,0-9.688-4.338-9.688-9.688 s4.338-9.688,9.688-9.688s9.688,4.338,9.688,9.688S402.986,340.62,397.635,340.62z"/><path style="fill:#101A46;" d="M434.152,319.655c-6.228,0-11.277,5.049-11.277,11.277s5.049,11.277,11.277,11.277 c6.228,0,11.277-5.049,11.277-11.277S440.38,319.655,434.152,319.655z M434.152,340.62c-5.351,0-9.688-4.338-9.688-9.688 s4.338-9.688,9.688-9.688s9.688,4.338,9.688,9.688S439.503,340.62,434.152,340.62z"/><path style="fill:#FDB126;" d="M430.062,314.247l-0.946-0.879l-1.499-4.523l-1.327,0.401l0.068,0.402l-17.733,6.604l-0.415-0.861 l0.654-0.234l-0.137-0.293l-0.783,0.147l-0.848-3.68c-0.339,0.033-0.678,0.06-1.018,0.079l1.015,3.856l-0.545,0.292l0.17,0.364 l0.525-0.187l0.293,1.281l-10.11,10.618l0.647,0.984l9.666-10.762l3.296,12.576l-12.69-1.156l0.068,1.021l14.532,1.459 l14.159-18.131l0.51-0.329l0.438,0.685l-0.042,1.017c0,0,1.3,0,1.599,1.177c0.3,1.177,4.794,13.707,4.794,13.707 s0.65,0.427,0.9-0.376l0.201-0.107L430.062,314.247z M426.732,311.836c-1.02,0.183-3.743,3.393-3.743,3.393l-10.709,14.774 l-3.15-11.64l0.007,0.003l17.392-7.041C427.006,311.363,426.732,311.836,426.732,311.836z"/><g><path style="fill:#101A46;" d="M427.617,308.845l-0.005,0.002C427.63,308.933,427.617,308.845,427.617,308.845z"/><path style="fill:#101A46;" d="M428.442,305.454l0.21-0.231l-4.942-4.485l-1.495,1.648l4.811,4.366 c-0.159-0.008-0.356-0.046-0.611-0.107c-0.898-0.214-0.849,0.588-0.849,0.588l0.725,2.012l1.322-0.399 c-0.016-0.076-0.055-0.285-0.148-0.809c-0.2-1.124,0.999-1.231,0.999-1.231l1.049,0.214l0.349-0.374 C429.862,306.645,429.219,306.053,428.442,305.454z M427.289,306.725l0.324-0.358 C427.533,306.565,427.436,306.677,427.289,306.725z"/></g><path style="fill:#101A46;" d="M401.394,330.126c0,1.928-1.563,3.491-3.491,3.491c-1.928,0-3.491-1.563-3.491-3.491 s1.563-3.491,3.491-3.491C399.832,326.636,401.394,328.199,401.394,330.126z"/><g style="opacity:0.6;"><path style="fill:#FFFFFF;" d="M397.904,332.724c-0.665,0-1.331-0.253-1.837-0.76c-1.013-1.013-1.013-2.662,0-3.675 c1.014-1.013,2.662-1.013,3.675,0c1.013,1.013,1.013,2.662,0,3.675C399.235,332.471,398.569,332.724,397.904,332.724z M397.904,327.79c-0.599,0-1.198,0.228-1.653,0.684c-0.911,0.911-0.911,2.395,0,3.306c0.911,0.911,2.395,0.912,3.306,0 c0.911-0.911,0.911-2.395,0-3.306C399.101,328.018,398.503,327.79,397.904,327.79z"/></g><circle style="fill:#101A46;" cx="434.645" cy="330.126" r="3.491"/><path style="fill:#101A46;" d="M404.885,309.183c0,0-2.685-0.269-2.417,2.148s8.324-0.537,8.324-0.537 S409.449,307.035,404.885,309.183z"/><path style="fill:#101A46;" d="M416.565,333.349h-3.759c-0.665,0-1.208-0.544-1.208-1.208l0,0c0-0.665,0.544-1.208,1.208-1.208 h3.759c0.664,0,1.208,0.544,1.208,1.208l0,0C417.773,332.805,417.229,333.349,416.565,333.349z"/><g style="opacity:0.6;"><path style="fill:#FFFFFF;" d="M434.555,332.59c-0.665,0-1.331-0.253-1.837-0.76c-0.491-0.491-0.761-1.143-0.761-1.838 c0-0.694,0.27-1.347,0.761-1.837c1.013-1.013,2.662-1.013,3.675,0l0,0c0.491,0.491,0.761,1.143,0.761,1.837 c0,0.694-0.27,1.347-0.761,1.838C435.886,332.336,435.22,332.59,434.555,332.59z M434.555,327.656 c-0.599,0-1.197,0.228-1.653,0.684c-0.441,0.441-0.685,1.029-0.685,1.653c0,0.625,0.243,1.212,0.685,1.653 c0.911,0.911,2.395,0.911,3.306,0c0.441-0.442,0.685-1.029,0.685-1.653c0-0.624-0.243-1.212-0.685-1.653l0,0 C435.752,327.883,435.154,327.656,434.555,327.656z"/></g></g></g><g><g><path style="fill:#101A46;" d="M332.719,104.366c0.627,0.507,0.999,1.206,1.123,1.944l86.741-0.812l0.009,1l-86.741,0.812 c-0.081,0.542-0.29,1.071-0.659,1.528c-1.104,1.366-3.106,1.578-4.472,0.473c-1.366-1.104-1.578-3.106-0.474-4.472 C329.352,103.473,331.354,103.261,332.719,104.366z"/><g><ellipse transform="matrix(0.9722 -0.2341 0.2341 0.9722 -14.1789 94.2108)" style="opacity:0.19;fill:#6CADE3;" cx="389.8" cy="106.838" rx="43.209" ry="43.209"/><ellipse transform="matrix(0.9723 -0.2338 0.2338 0.9723 -14.1747 94.0765)" style="fill:#FFFFFF;" cx="389.8" cy="106.838" rx="40.03" ry="40.03"/></g></g><g><polygon style="fill:#FDB126;" points="420.455,122.59 379.27,122.59 370.117,91.065 410.794,91.065 &#9;&#9;&#9;"/><polygon style="fill:#101A46;" points="370.117,91.065 363.11,121.725 379.27,122.59 &#9;&#9;&#9;"/><path style="fill:#FDB126;" d="M370.117,91.065c0,0-0.56,28.304,9.152,31.524C379.27,122.59,372.495,92.813,370.117,91.065z"/><g><line style="fill:#101A46;" x1="370.735" y1="91.065" x2="370.735" y2="84.144"/><rect x="370.494" y="84.144" style="fill:#101A46;" width="0.484" height="6.922"/></g><g><path style="fill:#101A46;" d="M386.706,124.671c-4.245-1.836-8.081-8.025-11.401-18.395 c-2.462-7.689-3.706-14.939-3.719-15.011l0.476-0.081c0.049,0.288,4.996,28.788,14.836,33.044L386.706,124.671z"/></g><g><path style="fill:#101A46;" d="M423.476,121.676c-4.685-1.929-12.581-29.377-12.915-30.545l0.465-0.133 c0.081,0.284,8.164,28.39,12.633,30.231L423.476,121.676z"/></g><g><path style="fill:#101A46;" d="M358.271,121.414l-0.125-0.467c3.241-0.864,9.572-21.909,11.738-29.944l0.467,0.126 C370.029,92.319,362.443,120.302,358.271,121.414z"/></g><path style="fill:#101A46;" d="M358.208,123.087L358.208,123.087c-0.3,0-0.545-0.245-0.545-0.545v-4.085 c0-0.3,0.245-0.545,0.545-0.545l0,0c0.299,0,0.545,0.245,0.545,0.545v4.085C358.753,122.842,358.508,123.087,358.208,123.087z"/><path style="fill:#101A46;" d="M387.075,125.538L387.075,125.538c-0.3,0-0.545-0.245-0.545-0.545v-4.085 c0-0.3,0.245-0.545,0.545-0.545l0,0c0.3,0,0.545,0.245,0.545,0.545v4.085C387.62,125.293,387.375,125.538,387.075,125.538z"/><path style="fill:#101A46;" d="M423.568,123.087L423.568,123.087c-0.3,0-0.545-0.245-0.545-0.545v-4.085 c0-0.3,0.245-0.545,0.545-0.545l0,0c0.299,0,0.545,0.245,0.545,0.545v4.085C424.112,122.842,423.867,123.087,423.568,123.087z"/><path style="fill:#FDB126;" d="M370.117,91.065c0,0-1.288,27.937-7.007,30.66C363.11,121.725,368.138,93.085,370.117,91.065z"/><path style="fill:#FDB126;" d="M370.494,84.144l5.96,1.361l-5.719,2.179C370.735,87.684,370.253,84.144,370.494,84.144z"/><g style="opacity:0.41;"><path style="fill:#101A46;" d="M389.3,109.436l-0.093-0.475c0.111-0.021,11.079-2.231,13.988-8.578l0.44,0.201 C400.623,107.158,389.761,109.345,389.3,109.436z"/></g><g style="opacity:0.41;"><path style="fill:#101A46;" d="M398.345,109.961l-0.208-0.437c0.051-0.024,5.103-2.452,6.414-5.86l0.452,0.174 C403.622,107.428,398.559,109.859,398.345,109.961z"/></g></g></g><g><g><path style="fill:#101A46;" d="M200.848,104.366c-0.627,0.507-0.999,1.206-1.123,1.944l-86.742-0.812l-0.009,1l86.741,0.812 c0.081,0.542,0.29,1.071,0.659,1.528c1.104,1.366,3.106,1.578,4.472,0.473c1.366-1.104,1.578-3.106,0.473-4.472 C204.216,103.473,202.214,103.261,200.848,104.366z"/><g><ellipse transform="matrix(0.0064 -1 1 0.0064 36.0093 249.9175)" style="opacity:0.19;fill:#6CADE3;" cx="143.767" cy="106.838" rx="43.209" ry="43.209"/><circle style="fill:#FFFFFF;" cx="143.767" cy="106.838" r="40.03"/></g></g><g><polygon style="fill:#6CADE3;" points="131.084,127.775 130.69,138.416 133.449,136.446 135.814,140.387 136.602,126.593 &#9;&#9;&#9;"/><rect x="123.841" y="80.184" style="fill:#FDB126;" width="40.451" height="50.352"/><path style="opacity:0.1;fill:#101A46;" d="M144.456,121.556c-8.715,0.147-15.814-5.755-20.615-13.651v22.63h40.451v-25.426 C161.239,113.614,153.97,121.396,144.456,121.556z"/><g style="opacity:0.41;"><path style="fill:#101A46;" d="M162.425,128.15h-36.717V82.569h36.717V128.15z M126.208,127.65h35.717V83.069h-35.717V127.65z"/></g><rect x="132.267" y="87.969" style="opacity:0.38;fill:#FFFFFF;" width="22.859" height="6.7"/></g></g><g><g><path style="fill:#101A46;" d="M348.704,199.773c0.627,0.507,0.999,1.206,1.123,1.944l86.741-0.812l0.009,1l-86.741,0.812 c-0.081,0.542-0.29,1.071-0.659,1.528c-1.104,1.366-3.106,1.578-4.472,0.474c-1.366-1.104-1.578-3.106-0.473-4.472 C345.336,198.881,347.338,198.669,348.704,199.773z"/><g><ellipse transform="matrix(0.9742 -0.2256 0.2256 0.9742 -35.1627 96.7475)" style="opacity:0.19;fill:#6CADE3;" cx="405.785" cy="202.246" rx="43.209" ry="43.209"/><ellipse transform="matrix(0.9742 -0.2259 0.2259 0.9742 -35.1955 96.8846)" style="fill:#FFFFFF;" cx="405.785" cy="202.246" rx="40.03" ry="40.03"/></g></g><g><path style="fill:#FDB126;" d="M424.684,223.788H386.12c-4.294,0-7.807-3.513-7.807-7.807v-26.835 c0-4.294,3.513-7.807,7.807-7.807h38.564c4.294,0,7.807,3.513,7.807,7.807v26.835 C432.491,220.275,428.978,223.788,424.684,223.788z"/><g style="opacity:0.25;"><path style="fill:#101A46;" d="M423.679,215.129h-36.554c-3.524,0-6.391-3.145-6.391-7.009v-17.976 c0-3.865,2.867-7.009,6.391-7.009h36.554c3.524,0,6.391,3.145,6.391,7.009v17.976 C430.07,211.984,427.204,215.129,423.679,215.129z M387.125,183.845c-3.167,0-5.743,2.826-5.743,6.299v17.976 c0,3.473,2.576,6.299,5.743,6.299h36.554c3.167,0,5.743-2.826,5.743-6.299v-17.976c0-3.473-2.576-6.299-5.743-6.299H387.125z"/></g><path style="opacity:0.1;fill:#101A46;" d="M378.313,214.946v1.387c0,4.1,3.354,7.455,7.455,7.455h39.269 c4.1,0,7.455-3.355,7.455-7.455v-1.387H378.313z"/><g style="opacity:0.28;"><rect x="379.249" y="217.072" style="fill:#101A46;" width="51.979" height="0.648"/></g><path style="fill:#101A46;" d="M388.147,220.674c0,0.776-0.629,1.405-1.405,1.405s-1.405-0.629-1.405-1.405 s0.629-1.405,1.405-1.405S388.147,219.899,388.147,220.674z"/><path style="fill:#101A46;" d="M394.703,220.674c0,0.776-0.629,1.405-1.405,1.405c-0.776,0-1.405-0.629-1.405-1.405 s0.629-1.405,1.405-1.405C394.074,219.27,394.703,219.899,394.703,220.674z"/><path style="fill:#101A46;" d="M401.259,220.674c0,0.776-0.629,1.405-1.405,1.405c-0.776,0-1.405-0.629-1.405-1.405 s0.629-1.405,1.405-1.405C400.63,219.27,401.259,219.899,401.259,220.674z"/><path style="fill:#101A46;" d="M407.815,220.674c0,0.776-0.629,1.405-1.405,1.405c-0.776,0-1.405-0.629-1.405-1.405 s0.629-1.405,1.405-1.405C407.186,219.27,407.815,219.899,407.815,220.674z"/><path style="fill:#101A46;" d="M414.371,220.674c0,0.776-0.629,1.405-1.405,1.405c-0.776,0-1.405-0.629-1.405-1.405 s0.629-1.405,1.405-1.405C413.742,219.27,414.371,219.899,414.371,220.674z"/><path style="fill:#101A46;" d="M420.927,220.674c0,0.776-0.629,1.405-1.405,1.405c-0.776,0-1.405-0.629-1.405-1.405 s0.629-1.405,1.405-1.405C420.298,219.27,420.927,219.899,420.927,220.674z"/><path style="fill:#101A46;" d="M427.483,220.674c0,0.776-0.629,1.405-1.405,1.405s-1.405-0.629-1.405-1.405 s0.629-1.405,1.405-1.405S427.483,219.899,427.483,220.674z"/><g><path style="fill:#101A46;" d="M399.712,183.212c-8.793,0-15.922,7.128-15.922,15.922c0,8.793,7.128,15.921,15.922,15.921 c8.793,0,15.922-7.128,15.922-15.921C415.633,190.34,408.505,183.212,399.712,183.212z M399.712,202.738 c-1.991,0-3.604-1.614-3.604-3.604c0-1.991,1.613-3.604,3.604-3.604c1.99,0,3.604,1.614,3.604,3.604 C403.316,201.124,401.702,202.738,399.712,202.738z"/><g style="opacity:0.14;"><path style="fill:#FFFFFF;" d="M399.712,213.155c-7.731,0-14.021-6.29-14.021-14.021c0-7.731,6.29-14.021,14.021-14.021 c7.731,0,14.021,6.29,14.021,14.021C413.733,206.865,407.443,213.155,399.712,213.155z M399.712,185.395 c-7.576,0-13.739,6.163-13.739,13.739s6.163,13.739,13.739,13.739s13.739-6.163,13.739-13.739S407.288,185.395,399.712,185.395 z"/></g><g style="opacity:0.14;"><path style="fill:#FFFFFF;" d="M399.712,210.973c-6.528,0-11.839-5.311-11.839-11.839s5.311-11.839,11.839-11.839 c6.528,0,11.839,5.311,11.839,11.839S406.24,210.973,399.712,210.973z M399.712,187.533c-6.397,0-11.601,5.204-11.601,11.601 s5.204,11.601,11.601,11.601s11.601-5.204,11.601-11.601S406.109,187.533,399.712,187.533z"/></g><g style="opacity:0.14;"><path style="fill:#FFFFFF;" d="M399.712,208.523c-5.177,0-9.39-4.212-9.39-9.39c0-5.177,4.212-9.39,9.39-9.39 c5.177,0,9.39,4.212,9.39,9.39C409.102,204.311,404.889,208.523,399.712,208.523z M399.712,189.933 c-5.073,0-9.201,4.127-9.201,9.201s4.127,9.201,9.201,9.201c5.073,0,9.2-4.127,9.2-9.201S404.785,189.933,399.712,189.933z"/></g><g style="opacity:0.14;"><path style="fill:#FFFFFF;" d="M399.712,206.482c-4.052,0-7.348-3.297-7.348-7.348c0-4.052,3.297-7.348,7.348-7.348 c4.052,0,7.348,3.296,7.348,7.348C407.06,203.185,403.764,206.482,399.712,206.482z M399.712,191.933c-3.97,0-7.2,3.23-7.2,7.2 c0,3.97,3.23,7.2,7.2,7.2c3.97,0,7.2-3.23,7.2-7.2C406.912,195.163,403.682,191.933,399.712,191.933z"/></g></g><rect x="417.649" y="188.363" style="opacity:0.25;fill:#101A46;" width="7.961" height="10.302"/><g><path style="fill:#FFFFFF;" d="M407.878,209.285l-0.127-0.635c5.582-1.117,9.537-3.385,11.753-6.743 c2.665-4.036,1.816-8.283,1.807-8.325l0.634-0.134c0.039,0.183,0.917,4.539-1.893,8.806 C417.739,205.766,413.643,208.132,407.878,209.285z"/></g><path style="fill:#FFFFFF;" d="M407.112,210.661h-2.341c-0.901,0-1.639-0.738-1.639-1.639l0,0c0-0.901,0.738-1.639,1.639-1.639 h2.341c0.901,0,1.639,0.738,1.639,1.639l0,0C408.751,209.923,408.014,210.661,407.112,210.661z"/><rect x="419.99" y="192.109" style="fill:#101A46;" width="3.746" height="3.278"/><g><path style="fill:#FFFFFF;" d="M399.595,202.738c-1.99,0-3.604-1.614-3.604-3.604c0-1.991,1.614-3.604,3.604-3.604 c1.991,0,3.604,1.614,3.604,3.604C403.199,201.124,401.585,202.738,399.595,202.738z"/><path style="fill:#B6DCFD;" d="M396.735,201.321c0.659,0.86,1.693,1.417,2.86,1.417c1.991,0,3.604-1.614,3.604-3.604 c0-0.604-0.15-1.173-0.413-1.673C400.781,198.767,398.763,200.052,396.735,201.321z"/></g></g></g><g><g><path style="fill:#101A46;" d="M156.891,199.773c-0.627,0.507-0.999,1.206-1.123,1.944l-86.741-0.812l-0.009,1l86.741,0.812 c0.081,0.542,0.29,1.071,0.659,1.528c1.104,1.366,3.106,1.578,4.472,0.474c1.366-1.104,1.578-3.106,0.473-4.472 C160.258,198.881,158.256,198.669,156.891,199.773z"/><g><circle style="opacity:0.19;fill:#6CADE3;" cx="99.809" cy="202.246" r="43.209"/><circle style="fill:#FFFFFF;" cx="99.809" cy="202.246" r="40.03"/></g></g><g><path style="fill:#101A46;" d="M87.942,189.214l-7.156,1.323c-1.593,0.294-3.138-0.768-3.432-2.361l0,0 c-0.294-1.593,0.768-3.137,2.361-3.432l7.156-1.323c1.593-0.294,3.138,0.768,3.432,2.361l0,0 C90.597,187.375,89.535,188.919,87.942,189.214z"/><path style="fill:#101A46;" d="M111.014,188.883l7.156,1.323c1.593,0.294,3.138-0.768,3.432-2.361l0,0 c0.295-1.593-0.768-3.138-2.361-3.432l-7.157-1.323c-1.593-0.295-3.137,0.768-3.432,2.361l0,0 C108.358,187.044,109.421,188.589,111.014,188.883z"/><path style="fill:#FDB126;" d="M116.798,187.999c-0.013,0-0.026,0.001-0.038,0.001c-22.566-3.677-33.084-1.243-37.349,0.534 c-4.941,1.695-8.566,7.251-8.566,13.847c0,7.943,5.254,14.382,11.736,14.382c2.356,0,4.549-0.854,6.387-2.319 c9.401-5.32,16.191-3.507,19.935-1.422c2.085,2.324,4.855,3.742,7.896,3.742c6.482,0,11.736-6.439,11.736-14.382 C128.534,194.438,123.279,187.999,116.798,187.999z"/><g><path style="fill:#FFFFFF;" d="M116.798,214.856c-2.378,0-4.678-1.104-6.475-3.108l-0.214-0.238l-0.279-0.155 c-2.751-1.532-5.792-2.308-9.037-2.308c-4.089,0-8.383,1.257-12.766,3.737l-0.249,0.168c-1.563,1.245-3.361,1.904-5.199,1.904 c-5.419,0-9.828-5.596-9.828-12.474c0-5.62,2.992-10.572,7.278-12.042l0.115-0.043c2.523-1.051,7.3-2.303,15.732-2.303 c5.952,0,12.875,0.636,20.577,1.891l0.197,0.032l0.182-0.008c5.404,0.028,9.795,5.624,9.795,12.474 C126.626,209.26,122.217,214.856,116.798,214.856z M100.793,208.502c3.339,0,6.468,0.8,9.302,2.377l0.389,0.234l0.244,0.272 c1.693,1.887,3.849,2.927,6.07,2.927c5.119,0,9.284-5.351,9.284-11.929c0-6.551-4.147-11.903-9.246-11.929l-0.225,0.005 l-0.246-0.036c-7.672-1.25-14.566-1.884-20.489-1.884c-8.342,0-13.046,1.23-15.522,2.261l-0.147,0.056 c-4.069,1.396-6.91,6.136-6.91,11.527c0,6.578,4.164,11.929,9.283,11.929c1.713,0,3.394-0.617,4.859-1.785l0.135-0.107 l0.186-0.109C92.225,209.783,96.61,208.502,100.793,208.502z"/></g><path style="fill:#101A46;" d="M89.026,199.628h-3.639v-3.639c0-0.667-0.546-1.213-1.213-1.213c-0.667,0-1.213,0.546-1.213,1.213 v3.639h-3.639c-0.667,0-1.213,0.546-1.213,1.213c0,0.667,0.546,1.213,1.213,1.213h3.639v3.639c0,0.667,0.546,1.213,1.213,1.213 c0.667,0,1.213-0.546,1.213-1.213v-3.639h3.639c0.667,0,1.213-0.546,1.213-1.213C90.239,200.173,89.694,199.628,89.026,199.628z"/><path style="fill:#101A46;" d="M95.958,209.505c0,2.01-1.629,3.639-3.639,3.639c-2.01,0-3.639-1.629-3.639-3.639 c0-2.01,1.629-3.639,3.639-3.639C94.328,205.866,95.958,207.495,95.958,209.505z"/><circle style="fill:#101A46;" cx="107.567" cy="209.505" r="3.639"/><path style="fill:#101A46;" d="M120.567,201.356c-0.955,0-1.729-0.774-1.729-1.729c0-0.955,0.774-1.729,1.729-1.729 c0.955,0,1.729,0.774,1.729,1.729C122.296,200.583,121.522,201.356,120.567,201.356z"/><path style="fill:#101A46;" d="M114.329,201.356c-0.955,0-1.729-0.774-1.729-1.729c0-0.955,0.774-1.729,1.729-1.729 c0.955,0,1.729,0.774,1.729,1.729C116.058,200.583,115.284,201.356,114.329,201.356z"/><path style="fill:#101A46;" d="M96.824,193.736h-2.079c-0.477,0-0.866-0.39-0.866-0.866l0,0c0-0.477,0.39-0.866,0.866-0.866 h2.079c0.477,0,0.866,0.39,0.866,0.866l0,0C97.69,193.346,97.3,193.736,96.824,193.736z"/><path style="fill:#101A46;" d="M105.834,193.736h-2.079c-0.477,0-0.866-0.39-0.866-0.866l0,0c0-0.477,0.39-0.866,0.866-0.866 h2.079c0.477,0,0.866,0.39,0.866,0.866l0,0C106.701,193.346,106.311,193.736,105.834,193.736z"/><ellipse transform="matrix(0.2273 -0.9738 0.9738 0.2273 -130.8162 238.1964)" style="opacity:0.06;fill:#101A46;" cx="84.695" cy="201.534" rx="10.916" ry="10.916"/><circle style="opacity:0.06;fill:#101A46;" cx="114.845" cy="201.187" r="10.916"/></g></g><g/></g></svg>